<?xml version="1.0" encoding="utf-8"?>
<!-- Generator: Adobe Illustrator 27.3.1, SVG Export Plug-In . SVG Version: 6.00 Build 0)  -->
<svg version="1.1" id="Camada_1" xmlns="http://www.w3.org/2000/svg" xmlns:xlink="http://www.w3.org/1999/xlink" x="0px" y="0px"
	 viewBox="0 0 512 512" style="enable-background:new 0 0 512 512;" xml:space="preserve">
<style type="text/css">
	.st0{fill:none;}
	.st1{fill:#D3BF6C;}
	.st2{fill:#EAE6C5;}
	.st3{fill:none;stroke:#D3BF6C;stroke-miterlimit:10;}
	.st4{fill:none;stroke:#E5D583;stroke-miterlimit:10;}
	.st5{fill:none;stroke:#2B0C08;stroke-width:7;stroke-miterlimit:10;}
	.st6{fill:#F1CF10;}
	.st7{fill:#B88610;}
	.st8{fill:#2B0C08;}
	.st9{fill:#F7F6D5;}
	.st10{fill:#130D0C;}
	.st11{fill:#F0796C;}
	.st12{fill:#17100F;}
	.st13{fill:#120D0C;}
	.st14{fill:#160D0C;}
	.st15{fill:#7B391C;}
	.st16{fill:#D65950;}
	.st17{fill:#E5D583;}
</style>
<g>
	<line class="st0" x1="380.46" y1="137.07" x2="438.13" y2="144.26"/>
	<path class="st0" d="M438.13,144.26"/>
	<path class="st1" d="M315.13,168.2c0,0,70.51-6.47,115.17,18.01c15.02,7.18,34.7,16.72,30.41,28.71
		c-2.13,5.1-11.36,23.68-65.42,4.55S315.13,168.2,315.13,168.2z"/>
	<path class="st2" d="M323.38,170.37c0,0,63.06-5.57,103.12,16.79c13.47,6.57,31.11,15.3,27.33,26.14
		c-1.88,4.62-10.07,21.42-58.52,3.86S323.38,170.37,323.38,170.37z"/>
	<path class="st1" d="M306.11,164.81c0,0,111.2-106.77,151.38-65.22s-92.48,80.75-114.27,78.23
		C321.43,175.29,326.47,176.05,306.11,164.81z"/>
	<path class="st2" d="M314.85,162.9c0,0,99.06-96.31,135.19-58.5s-82.42,72.8-101.93,70.43S333.11,173.17,314.85,162.9z"/>
	<path class="st3" d="M460.84,117.31c0,0,0.91-24.62-32.29-4.19c-4.48,2.76-9.59,6.34-15.4,10.91
		c-48.87,38.44-98.29,38.86-98.29,38.86s22.15-5.86,47.91-30.49c0,0,5.67-7.23,17.66-15.76c1.66-1.18,3.43-2.38,5.33-3.6
		c11.85-7.57,28.45-15.49,50.23-19.99"/>
	<path class="st3" d="M315.31,164.36c0,0,62.14,0.61,118.6-19.74c0,0,12.33-1.58,24.18-16.56"/>
	<line class="st3" x1="377.47" y1="118.81" x2="414.11" y2="123.28"/>
	<line class="st3" x1="394.28" y1="108.04" x2="397.1" y2="101.8"/>
	<line class="st4" x1="353.72" y1="140.45" x2="340.37" y2="138.66"/>
	<line class="st3" x1="373.12" y1="148.18" x2="391.21" y2="120.49"/>
	<line class="st3" x1="434.46" y1="109.76" x2="428.05" y2="94.64"/>
	<line class="st3" x1="389.45" y1="139.95" x2="405.24" y2="153.22"/>
	<line class="st3" x1="424.69" y1="115.6" x2="421.94" y2="147.91"/>
	<line class="st4" x1="364.34" y1="160.83" x2="376.05" y2="170.86"/>
	<polyline class="st3" points="327,177.52 395.58,189.75 405.85,191.58 432.46,188.62 	"/>
	<polyline class="st3" points="438.39,225.84 424.63,214.24 395.58,189.75 	"/>
	<polyline class="st3" points="457.92,205.57 425.27,213.81 423.77,213.52 	"/>
	<line class="st4" x1="382.13" y1="213.18" x2="371.55" y2="198.86"/>
	<polyline class="st3" points="425.63,226.15 416.76,217.2 405.96,212.82 336.19,184.52 	"/>
	<line class="st3" x1="416.81" y1="207.85" x2="394.23" y2="208.06"/>
	<path class="st5" d="M119.17,105.49c0,0,25.19-60.94-18.38-71.83S51.57,69.57,51.57,69.57"/>
	<circle class="st6" cx="215.34" cy="269.06" r="201.7"/>
	<path class="st7" d="M305.53,449.53c-27.14,13.59-57.77,21.24-90.19,21.24c-111.39,0-201.7-90.31-201.7-201.7
		c0-7.51,0.41-14.92,1.21-22.21c1.64,21.68,6.22,48.25,17.17,76.84c13.01,33.96,31.66,61.98,46.42,77.82
		c10.65,11.42,24.38,23.25,24.38,23.25s8.78,7.56,16.14,13.05c33.05,24.62,112.3,20.06,128.54,18.96
		C261.68,455.83,281.66,453.89,305.53,449.53z"/>
	<path class="st8" d="M149.58,459.68c125.89-20.7,248.31-131.76,261.31-239.83c21.81,100.62-23.97,169.04-66.17,203.96
		C315.26,451.02,238.19,490.17,149.58,459.68z"/>
	<polygon class="st8" points="331.04,434.87 391.26,462.34 370.58,398 	"/>
	<path class="st8" d="M112.7,442.73c101.47-34.61,251.23-171.46,280.55-268.76c0,0-11.96-24.14-30.52-42.58
		C319,217.49,194.92,341.06,68.18,406.99C77.3,418.68,97.9,435.36,112.7,442.73z"/>
	<path class="st8" d="M24.67,197.94c0,0,7.89,16.33,19.8,8.48c11.91-7.85,56.84-38.16,50.36-69.95s-35.74-18.63-35.74-18.63
		S17.94,139.6,24.67,197.94z"/>
	<path class="st8" d="M131.15,250.15c0,0,8.69,17.98,21.8,9.34c13.11-8.64,62.6-42.02,55.46-77.04
		c-7.14-35.02-39.36-20.52-39.36-20.52S123.73,185.9,131.15,250.15z"/>
	<circle class="st9" cx="172.83" cy="175.87" r="10.34"/>
	<circle class="st9" cx="64.41" cy="131.39" r="10.34"/>
	<path class="st10" d="M71.18,226.41c0,0,23.49-10.3,26.76,14.91c-4.97,21.56-18.03,42.66-26.12,47.78
		c-8.09,5.12-17.64-1.58-19.95-8.42S60.83,241.84,71.18,226.41z"/>
	<path class="st11" d="M95,251.51c0,0-21.55-5.18-38.52,6.1c-4.92,13.11-4.92,20.51-4.92,20.51s-0.04,8.07,8.66,11.51
		s13.13-0.36,19.78-8.93C86.66,272.13,92.83,258.65,95,251.51z"/>
	<path class="st5" d="M218.41,89.83c0,0,27.06-22.47,24.51-43.4s-66.89-19.4-90.38-10.72"/>
	<ellipse class="st8" cx="50.45" cy="78.6" rx="9.24" ry="11.23"/>
	
		<ellipse transform="matrix(0.6161 -0.7877 0.7877 0.6161 23.9846 131.5119)" class="st8" cx="146.9" cy="41.15" rx="11.23" ry="9.24"/>
	<path class="st10" d="M370.58,398c-12.23,14.59-41.37,45.29-89.76,61.86c-61.31,20.99-113.99,5.75-131.12-0.01
		c24.27,2.87,60.39,4.18,102.41-5.42C308.82,441.47,348.9,414.89,370.58,398z"/>
	<path class="st12" d="M121.44,439.54c-2.95,1.15-5.86,2.21-8.74,3.19c-14.81-7.38-35.4-24.06-44.52-35.74
		c3.85-2,7.69-4.06,11.53-6.16C90.9,414.53,107.54,430.13,121.44,439.54z"/>
	<polygon class="st13" points="391.26,462.34 331.04,434.87 337.66,428.7 387.8,451.57 	"/>
	<path class="st14" d="M209.11,189.53c-0.08,32.34-43.93,61.91-56.16,69.96c-10.12,6.68-17.61-2.53-20.5-7.07
		c3.49,0.43,7.38-0.36,11.61-3.15C156.11,241.33,190.35,218.3,209.11,189.53z"/>
	<path class="st14" d="M95.33,143.23c-0.07,29.27-39.76,56.03-50.82,63.31c-9.16,6.05-15.94-2.29-18.55-6.4
		c3.16,0.39,6.68-0.33,10.51-2.85C47.37,190.11,78.36,169.27,95.33,143.23z"/>
	<path class="st15" d="M369.81,401.57c0,0-2.81,5.02-4.94,5.7l17.28,33.53L369.81,401.57z"/>
	<path class="st15" d="M410.92,257.83c0,0,3.32,47.23-11.74,74.81C384.11,360.21,410.41,275.45,410.92,257.83z"/>
	<path class="st15" d="M179.73,163.74c0,0,11.62-0.51,14.94,3.32C197.98,170.89,191.98,156.6,179.73,163.74z"/>
	<path class="st15" d="M78.26,120.6c2.24,2.58-1.81-7.06-10.08-2.24C68.18,118.36,76.02,118.02,78.26,120.6"/>
	<path class="st16" d="M95,251.51c-0.35,1.15-0.8,2.47-1.34,3.9c-8.47-0.38-21,0.63-31.8,7.82c-5.32,14.19-5.32,22.2-5.32,22.2
		c0,0.05,0,1,0.33,2.38c-5.29-3.82-5.31-9.6-5.31-9.69c0,0,0-7.4,4.92-20.51C73.45,246.33,95,251.51,95,251.51z"/>
	<g>
		<path class="st17" d="M314.6,163.39c0,0,69.15,15.19,104.3,52.04c12.14,11.39,28,26.44,20.29,36.57
			c-3.57,4.22-18,19.13-63.73-15.47S314.6,163.39,314.6,163.39z"/>
		<path class="st9" d="M321.81,167.96c0,0,61.79,13.79,93.19,47.23c10.85,10.34,25.02,24,18.13,33.19
			c-3.19,3.83-16.09,17.36-56.94-14.04S321.81,167.96,321.81,167.96z"/>
		<path class="st17" d="M307.03,157.43c0,0,138.31-68.08,164.03-16.32s-112.59,48.95-132.59,39.95S323.03,174.31,307.03,157.43z"/>
		<path class="st9" d="M315.94,158.26c0,0,123.57-61.79,146.55-14.81s-100.6,44.43-118.47,36.26S330.24,173.57,315.94,158.26z"/>
		<path class="st4" d="M468.87,159.02c0,0,8.32-23.19-29.51-13.77c-5.11,1.27-11.06,3.14-17.98,5.74
			c-58.21,21.84-105.45,7.27-105.45,7.27s22.88,1.13,54.89-14.55c0,0,7.6-5.17,21.61-9.67c1.94-0.62,4-1.23,6.17-1.81
			c13.58-3.62,31.81-6.15,53.92-3.84"/>
		<path class="st4" d="M315.94,159.79c0,0,59.04,19.4,119.01,17.11c0,0,12.22,2.23,28.05-8.46"/>
		<line class="st4" x1="388.97" y1="135.2" x2="422.54" y2="150.56"/>
		<line class="st4" x1="408.26" y1="130.03" x2="412.83" y2="124.94"/>
		<line class="st4" x1="359.78" y1="148.63" x2="347.6" y2="142.88"/>
		<line class="st4" x1="375.93" y1="161.88" x2="401.56" y2="140.96"/>
		<line class="st4" x1="446.03" y1="143.84" x2="444.49" y2="127.48"/>
		<line class="st4" x1="393.98" y1="158.98" x2="405.02" y2="176.4"/>
		<line class="st4" x1="434.95" y1="146.44" x2="422.54" y2="176.4"/>
		<line class="st4" x1="363.73" y1="171.27" x2="371.85" y2="184.38"/>
		<polyline class="st4" points="323.09,175.87 384.74,208.29 393.98,213.15 420.24,218.38 		"/>
		<polyline class="st4" points="414.62,255.66 405.02,240.44 384.74,208.29 		"/>
		<polyline class="st4" points="439.37,242.26 405.75,240.21 404.42,239.49 		"/>
		<line class="st4" x1="364.83" y1="226.55" x2="359.09" y2="209.7"/>
		<polyline class="st4" points="402.36,252.08 396.62,240.87 387.66,233.43 329.73,185.32 		"/>
		<line class="st4" x1="399.5" y1="231.98" x2="377.92" y2="225.34"/>
	</g>
</g>
</svg>
