<?xml version="1.0" encoding="utf-8"?>
<!-- Generator: Adobe Illustrator 27.3.1, SVG Export Plug-In . SVG Version: 6.00 Build 0)  -->
<svg version="1.1" id="Camada_1" xmlns="http://www.w3.org/2000/svg" xmlns:xlink="http://www.w3.org/1999/xlink" x="0px" y="0px"
	 viewBox="0 0 1024 1024" style="enable-background:new 0 0 1024 1024;" xml:space="preserve">
<style type="text/css">
	.st0{fill:#F7F6D5;stroke:#E3DD97;stroke-width:4;stroke-miterlimit:10;}
	.st1{fill:none;stroke:#E3DD97;stroke-width:4;stroke-miterlimit:10;}
	.st2{fill:#682914;}
	.st3{fill:#5E2212;}
	.st4{fill:#541E0F;}
	.st5{fill:#7F5C11;}
	.st6{fill:#45150D;}
	.st7{fill:#F1CF10;}
	.st8{fill:#2B0C07;}
	.st9{fill:#46160C;}
	.st10{fill:#D1AA17;}
	.st11{fill:#1B0809;}
	.st12{fill:#E4C115;}
	.st13{fill:#100D0C;}
	.st14{fill:#C3A321;}
	.st15{fill:#040404;}
	.st16{fill:#2B0C08;}
	.st17{fill:#230A0A;}
	.st18{fill:#141110;}
	.st19{fill:#F7F6D5;}
	.st20{fill:#351711;}
	.st21{fill:#E5C013;}
	.st22{fill:#15100F;}
	.st23{fill:#D26A5F;}
	.st24{fill:#BF534B;}
	.st25{fill:#F9F9E9;}
	.st26{fill:#FFFFFF;}
	.st27{fill:#44140C;}
	.st28{fill:#441F15;}
	.st29{fill:#B88610;}
	.st30{fill:none;stroke:#9A6D13;stroke-miterlimit:10;}
	.st31{fill:#240B08;}
	.st32{fill:#130E0D;}
	.st33{fill:#38100A;}
	.st34{fill:#30090A;}
	.st35{fill:#170D0C;}
	.st36{fill:#300A0A;}
	.st37{fill:#130F0E;}
	.st38{fill:#E3C117;}
	.st39{fill:#C3A320;}
	.st40{fill:#C3A31F;}
	.st41{fill:#A88C19;}
	.st42{fill:none;stroke:#C3A320;stroke-miterlimit:10;}
</style>
<g>
	<g>
		<path class="st0" d="M563.14,415.76c0,0,1.15,28.08,18.16,67.93c17.01,39.85,67.27,188.82,177.59,261.5
			c14.54,9.44,25.28-2.4,30.43-8.98c5.15-6.59,11.74-29.53,12.63-41.19c0.89-11.66,13.38-60.49,11.63-84.91s8.44-71.71-42.09-113.48
			c-50.53-41.76-168.57-69.98-182.16-76.88c-13.59-6.91-10.6-6.06-10.97-6.33c-0.37-0.27,3.11-7.37-3.69-10.83
			C567.87,399.15,562.45,408.73,563.14,415.76z"/>
		<polyline class="st1" points="563.72,410.16 703.97,618.96 749.63,686.94 764.94,748.04 		"/>
		<line class="st1" x1="712.66" y1="631.91" x2="802.21" y2="692.61"/>
		<line class="st1" x1="700.35" y1="613.58" x2="691.49" y2="684.63"/>
		<line class="st1" x1="636.45" y1="604.54" x2="697.74" y2="634.55"/>
		<path class="st1" d="M624.08,500.03c0.39,0.58-13.19,54.14-13.19,54.14"/>
		<polyline class="st1" points="583.49,417.26 772.72,575.88 813.57,610.12 		"/>
		<line class="st1" x1="806.45" y1="669.59" x2="772.72" y2="575.88"/>
		<polyline class="st1" points="727.5,537.97 704.58,543.2 659.92,553.38 		"/>
		<line class="st1" x1="649.33" y1="472.45" x2="683.81" y2="547.93"/>
		<line class="st1" x1="788.25" y1="683.14" x2="797.77" y2="715.62"/>
		<line class="st1" x1="794.92" y1="637.57" x2="811.82" y2="638.36"/>
		<line class="st1" x1="713.13" y1="541.25" x2="737.77" y2="648.93"/>
		<line class="st1" x1="787.76" y1="617.67" x2="730.28" y2="616.18"/>
		<line class="st1" x1="610.07" y1="479.16" x2="660.7" y2="497.35"/>
		<line class="st1" x1="603.51" y1="434.04" x2="596.67" y2="460.26"/>
		<polyline class="st1" points="638.99,462.02 725.12,468.7 617.93,446.13 		"/>
		<polyline class="st1" points="738.64,547.31 790.6,556.78 800.11,530.3 		"/>
		<line class="st1" x1="801.72" y1="600.18" x2="790.6" y2="556.78"/>
		<line class="st1" x1="755.9" y1="484.8" x2="761.49" y2="551.48"/>
		<line class="st1" x1="682.86" y1="500.56" x2="758.31" y2="513.56"/>
	</g>
	<g>
		<path class="st0" d="M538.29,424.36c0,0,13.04-32.14,49.43-71.33s156.89-191.27,315.34-229.68c20.82-4.9,28.36,13.33,31.59,23.12
			c3.23,9.8,1.32,39.19-2.51,53.11c-3.83,13.91-9.69,75.84-21.9,103.47s-20.11,86.82-96.22,114.25s-224.99,10.97-243.66,13.33
			c-18.67,2.35-14.84,2.62-15.38,2.78c-0.54,0.16,0.54,9.86-8.8,11.04S534.55,432.24,538.29,424.36z"/>
		<polyline class="st1" points="536.63,431.1 786.61,247.07 868.01,187.15 911.28,122.58 		"/>
		<line class="st1" x1="802.12" y1="235.66" x2="931.44" y2="202.5"/>
		<line class="st1" x1="780.17" y1="251.82" x2="799.51" y2="165.58"/>
		<line class="st1" x1="702.17" y1="235.66" x2="785.88" y2="226.36"/>
		<path class="st1" d="M644.22,351.9c0.7-0.51,7.26-68.38,7.26-68.38"/>
		<polyline class="st1" points="562.55,431.1 848.5,325.79 910.24,303.05 		"/>
		<line class="st1" x1="926.76" y1="231.01" x2="848.5" y2="325.79"/>
		<polyline class="st1" points="780.17,350.95 755.73,335.33 708.1,304.87 		"/>
		<line class="st1" x1="662.04" y1="394.46" x2="733.58" y2="321.17"/>
		<line class="st1" x1="911.28" y1="207.67" x2="935.89" y2="173.92"/>
		<line class="st1" x1="900.02" y1="263.39" x2="919.97" y2="269.52"/>
		<line class="st1" x1="764.85" y1="341.16" x2="838.38" y2="226.36"/>
		<line class="st1" x1="883.4" y1="283.52" x2="816.01" y2="261.27"/>
		<line class="st1" x1="619.24" y1="370.29" x2="685.64" y2="370.29"/>
		<line class="st1" x1="592.81" y1="419.96" x2="595.79" y2="386.65"/>
		<polyline class="st1" points="645.68,402.27 748.51,430.43 614.59,411.94 		"/>
		<polyline class="st1" points="797,344.76 861.31,355.42 861.31,390.15 		"/>
		<line class="st1" x1="892.32" y1="309.65" x2="861.31" y2="355.42"/>
		<line class="st1" x1="790.98" y1="424.56" x2="825.28" y2="349.45"/>
		<line class="st1" x1="712.72" y1="375.8" x2="805.77" y2="392.16"/>
	</g>
</g>
<g>
	<g>
		<path class="st0" d="M478.49,438.76c0,0-1.15,28.08-18.16,67.93c-17.01,39.85-67.27,188.82-177.59,261.5
			c-14.54,9.44-25.28-2.4-30.43-8.98s-11.74-29.53-12.63-41.19s-13.38-60.49-11.63-84.91c1.74-24.41-8.44-71.71,42.09-113.48
			s168.57-69.98,182.16-76.88c13.59-6.91,10.6-6.06,10.97-6.33c0.37-0.27-3.11-7.37,3.69-10.83
			C473.76,422.15,479.19,431.72,478.49,438.76z"/>
		<polyline class="st1" points="477.91,433.15 337.67,641.95 292,709.94 276.69,771.03 		"/>
		<line class="st1" x1="328.97" y1="654.9" x2="239.42" y2="715.6"/>
		<line class="st1" x1="341.28" y1="636.57" x2="350.14" y2="707.63"/>
		<line class="st1" x1="405.18" y1="627.53" x2="343.9" y2="657.54"/>
		<path class="st1" d="M417.55,523.02c-0.39,0.58,13.19,54.14,13.19,54.14"/>
		<polyline class="st1" points="458.14,440.25 268.92,598.87 228.06,633.12 		"/>
		<line class="st1" x1="235.18" y1="692.58" x2="268.92" y2="598.87"/>
		<polyline class="st1" points="314.13,560.97 337.05,566.19 381.71,576.37 		"/>
		<line class="st1" x1="392.31" y1="495.44" x2="357.82" y2="570.93"/>
		<line class="st1" x1="253.39" y1="706.14" x2="243.86" y2="738.61"/>
		<line class="st1" x1="246.71" y1="660.56" x2="229.82" y2="661.35"/>
		<line class="st1" x1="328.5" y1="564.24" x2="303.86" y2="671.92"/>
		<line class="st1" x1="253.87" y1="640.66" x2="311.35" y2="639.17"/>
		<line class="st1" x1="431.56" y1="502.16" x2="380.93" y2="520.34"/>
		<line class="st1" x1="438.12" y1="457.04" x2="444.97" y2="483.25"/>
		<polyline class="st1" points="402.64,485.01 316.51,491.69 423.7,469.12 		"/>
		<polyline class="st1" points="303,570.3 251.03,579.78 241.52,553.29 		"/>
		<line class="st1" x1="239.92" y1="623.18" x2="251.03" y2="579.78"/>
		<line class="st1" x1="285.74" y1="507.79" x2="280.14" y2="574.47"/>
		<line class="st1" x1="358.77" y1="523.55" x2="283.32" y2="536.55"/>
	</g>
	<g>
		<path class="st0" d="M503.34,447.35c0,0-13.04-32.14-49.43-71.33S297.02,184.75,138.58,146.34c-20.82-4.9-28.36,13.33-31.59,23.12
			s-1.32,39.19,2.51,53.11c3.83,13.91,9.69,75.84,21.9,103.47c12.21,27.63,20.11,86.82,96.22,114.25
			c76.11,27.44,224.99,10.97,243.66,13.33c18.67,2.35,14.84,2.62,15.38,2.78s-0.54,9.86,8.8,11.04
			C504.78,468.61,507.08,455.23,503.34,447.35z"/>
		<polyline class="st1" points="505,454.1 255.02,270.06 173.62,210.14 130.36,145.57 		"/>
		<line class="st1" x1="239.52" y1="258.65" x2="110.19" y2="225.49"/>
		<line class="st1" x1="261.46" y1="274.81" x2="242.12" y2="188.58"/>
		<line class="st1" x1="339.46" y1="258.65" x2="255.75" y2="249.35"/>
		<path class="st1" d="M397.41,374.89c-0.7-0.51-7.26-68.38-7.26-68.38"/>
		<polyline class="st1" points="479.08,454.1 193.13,348.78 131.4,326.04 		"/>
		<line class="st1" x1="114.87" y1="254" x2="193.13" y2="348.78"/>
		<polyline class="st1" points="261.46,373.95 285.91,358.32 333.53,327.86 		"/>
		<line class="st1" x1="379.59" y1="417.45" x2="308.05" y2="344.16"/>
		<line class="st1" x1="130.36" y1="230.66" x2="105.74" y2="196.91"/>
		<line class="st1" x1="141.61" y1="286.39" x2="121.66" y2="292.52"/>
		<line class="st1" x1="276.78" y1="364.15" x2="203.26" y2="249.35"/>
		<line class="st1" x1="158.23" y1="306.51" x2="225.62" y2="284.27"/>
		<line class="st1" x1="422.39" y1="393.28" x2="356" y2="393.28"/>
		<line class="st1" x1="448.83" y1="442.95" x2="445.84" y2="409.65"/>
		<polyline class="st1" points="395.95,425.26 293.12,453.42 427.04,434.93 		"/>
		<polyline class="st1" points="244.63,367.75 180.32,378.42 180.32,413.14 		"/>
		<line class="st1" x1="149.31" y1="332.64" x2="180.32" y2="378.42"/>
		<line class="st1" x1="250.66" y1="447.55" x2="216.35" y2="372.44"/>
		<line class="st1" x1="328.91" y1="398.79" x2="235.86" y2="415.16"/>
	</g>
</g>
<path class="st2" d="M611.19,482.55c-18.41,84.77-63.03,89.47-74.37,95.84c-11.33,6.37-31.87,6.37-41.78,0
	c-9.92-6.37-84.29-68-68.9-152.28c5.4-29.57,17.62-48.15,31.21-59.81c0.2-0.17,0.39-0.34,0.59-0.51c2.6-2.19,5.25-4.13,7.91-5.85
	c2.64-1.71,5.3-3.2,7.93-4.49c2.53-1.26,5.03-2.33,7.48-3.26c16.66-6.28,30.56-5.46,31.12-5.42h0.02c0.61-0.02,4.68-0.04,26.56-0.06
	c3.66,0,7.8,0.78,12.2,2.29c1.69,0.58,3.42,1.28,5.18,2.07c2.92,1.33,5.92,2.96,8.94,4.87c0.48,0.31,0.97,0.62,1.46,0.95
	c1.51,1.01,3.03,2.08,4.55,3.22C598.18,380.51,624.06,423.3,611.19,482.55z"/>
<path class="st3" d="M566.72,356.9c-12.38,9.52-33.24,24.15-50.9,29.75c-17.73-5.92-42.12-12.37-58.48-20.35
	c0.2-0.17,0.39-0.34,0.59-0.51c2.6-2.19,5.25-4.13,7.91-5.85c2.64-1.71,5.3-3.2,7.93-4.49c2.53-1.26,5.03-2.33,7.48-3.26
	c16.66-6.28,30.56-5.46,31.12-5.42h0.02c0.61-0.02,4.68-0.04,26.56-0.06c3.66,0,7.8,0.78,12.2,2.29c1.69,0.58,3.42,1.28,5.18,2.07
	c2.92,1.33,5.92,2.96,8.94,4.87C565.75,356.27,566.24,356.58,566.72,356.9z"/>
<path class="st4" d="M556.33,351.08c-9.01,6.53-22.68,13.96-41.44,17.81c-21.51-5.13-32.93-9.09-41.11-13.44
	c2.53-1.26,5.03-2.33,7.48-3.26c16.66-6.28,30.56-5.46,31.12-5.42h0.02c0.61-0.02,4.68-0.04,26.56-0.06c3.66,0,7.8,0.78,12.2,2.29
	C552.84,349.59,554.57,350.29,556.33,351.08z"/>
<path class="st5" d="M720.51,801.52"/>
<path class="st6" d="M614.19,462.48c-0.5,6.46-1.47,13.16-2.98,20.09c-18.41,84.77-63.03,89.47-74.37,95.84
	c-11.33,6.38-31.87,6.38-41.78,0c-1-0.64-2.64-1.84-4.78-3.56c28-0.34,68.29-7.71,93.72-42.7
	C598.73,511.87,608.15,486.68,614.19,462.48z"/>
<path class="st4" d="M614.59,452.4c-0.01,3.29-0.14,6.65-0.41,10.07c-6.04,24.2-15.46,49.39-30.2,69.67
	c-25.43,34.99-65.72,42.37-93.72,42.7c-1.56-1.25-3.39-2.79-5.41-4.59c22.34-1.67,52.82-7.23,73.23-24.12
	C578.82,529,599.12,487.64,614.59,452.4z"/>
<path class="st3" d="M614.59,452.32c-15.47,35.24-35.77,76.59-56.5,93.73c-20.41,16.89-50.9,22.45-73.23,24.12
	c-8.31-7.39-20.01-19.24-30.93-34.69c27.33-1.12,56.08-7.78,80.36-25.98c37.57-28.17,53.51-75.79,61.49-122.85
	C606.89,403.71,614.71,425.84,614.59,452.32z"/>
<path class="st7" d="M499.85,576.13c0,0-24.22,9.19-32.16,18.38c-7.93,9.19-57.63,52.2-65.15,142.41
	c-7.52,90.21,82.53,197.29,132.2,207.34s52.93-0.87,52.93-0.87s64.62-37.74,70.46-160.52c5.85-122.78-113.8-206.1-123.76-208.05
	C524.42,572.86,502.65,575.01,499.85,576.13z"/>
<path class="st8" d="M584.96,945.86c-4.66,2.5-17.17,5.1-50.21-1.59c-0.22-0.04-0.44-0.09-0.67-0.15c-2.27-0.49-4.63-1.19-7.05-2.07
	c-14.39-5.23-31.2-17.12-47.75-33.4c4.14-1.25,8.58-2.53,13.31-3.79c5.37-1.46,11.11-2.9,17.19-4.32
	c22.52-5.22,49.74-9.88,80.26-11.92c-11.67,20.72-28.31,35.9-44.51,46.79c-1.84,1.23-3.68,2.42-5.5,3.55h-0.01
	c-2.23,1.39-4.45,2.69-6.63,3.91v0.01c-0.45,0.25-0.9,0.5-1.34,0.74c0.68,0.18,1.36,0.34,2.02,0.47v0.01
	c0.23,0.05,0.46,0.1,0.69,0.15C567.78,950.93,580.28,948.33,584.96,945.86z"/>
<path class="st8" d="M587.31,944.01c0.18-0.25,0.28-0.43,0.33-0.54C587.61,943.57,587.51,943.75,587.31,944.01z"/>
<path class="st8" d="M629.4,894.99c-19.54,35.45-41.73,48.4-41.73,48.4s0,0.01-0.02,0.03c0.01-0.03,0.02-0.05,0.02-0.05
	S609.85,930.42,629.4,894.99z"/>
<path class="st8" d="M629.4,894.99c0.79-1.42,1.56-2.87,2.33-4.36C630.97,892.12,630.19,893.58,629.4,894.99z"/>
<path class="st8" d="M633.25,887.65c-0.5,1.01-1.01,2.01-1.52,2.99C632.24,889.65,632.75,888.66,633.25,887.65L633.25,887.65z"/>
<path class="st8" d="M601.16,638.19c-34.78,0.49-80.93,4.6-125.81,11.64c-9.26,1.45-18.46,3.03-27.5,4.72
	c-8.82,1.64-17.49,3.41-25.9,5.28c9.36-20.8,20.34-36.35,29.32-47.22c5.81-1.31,11.88-2.6,18.18-3.86
	c5.53-1.1,11.25-2.18,17.13-3.21c23.54-4.13,49.87-7.61,78.33-9.56c9.97,8.45,21.36,19.28,32.68,32.21
	C598.87,631.6,600.06,634.94,601.16,638.19z"/>
<path class="st8" d="M616.24,735.08c-42.51,1.39-101.52,8.39-154.43,19.36c-11.4,2.37-22.52,4.92-33.13,7.64
	c-8.72,2.24-17.09,4.59-24.99,7.04c-1.58-10.84-2.04-21.63-1.15-32.19c0.5-5.98,1.18-11.74,2.03-17.31
	c7.73-2.31,16.95-4.9,27.5-7.55c10.21-2.56,21.67-5.19,34.23-7.7c39.73-7.95,90.5-14.71,147.7-14.53
	C615.2,701.31,616.1,717.12,616.24,735.08z"/>
<path class="st8" d="M614.49,786.89c-1.31,16.68-3.41,33.5-6.58,49.24c-37.08,1.35-84.09,7.22-124.53,16.91
	c-9.99,2.39-19.59,5.02-28.53,7.87c-4.02,1.28-7.91,2.61-11.64,3.97c-9.28-13.81-17.62-28.72-24.32-44.15
	c5.18-1.68,11.11-3.52,17.76-5.44c9.12-2.65,19.58-5.47,31.22-8.27C505.82,797.91,556.37,789.01,614.49,786.89z"/>
<path class="st8" d="M557.11,545.59c0,0-2.64-8.45,1.73-12.84c2.38-2.39,5.78-2.53,7.05-2.57c6.29-0.24,40.87,5.28,78.47,51.53
	c11.13,13.69,26.22,35.5,37.8,66.4c-0.07,0.94-0.59,6.82-5.77,10.87c-5.53,4.32-11.84,3-12.68,2.81
	c-15.23-1.99-41.78-24.44-60.13-46.3C585.22,593.62,561.41,555.55,557.11,545.59z"/>
<path class="st9" d="M551.15,349.01c-8.22,6.2-20.79,12.61-38.98,15.11c-13.42-3.8-23.53-8.06-30.92-11.92
	c16.66-6.28,30.56-5.46,31.12-5.42h0.02c0.61-0.02,4.68-0.04,26.56-0.06C542.61,346.72,546.75,347.5,551.15,349.01z"/>
<polygon class="st10" points="544.9,115.73 544.91,115.73 544.9,115.73 "/>
<path class="st11" d="M566.13,948.44C566.13,948.44,566.13,948.44,566.13,948.44c0.17,0,0.34,0.01,0.5,0.02
	C566.47,948.45,566.3,948.45,566.13,948.44z"/>
<path class="st11" d="M566.13,948.44c-7.54-0.25-17.7-1.42-31.38-4.19c-0.89-0.18-1.79-0.39-2.71-0.63
	c19.91-10.97,43.04-28.44,57.99-55c8.39-0.56,17.03-0.93,25.89-1.05C600.42,913.01,579.23,935.6,566.13,948.44z"/>
<path class="st11" d="M640.23,786.41c-1.38,15.13-3.41,31.23-5.02,49.62c-8.18-0.3-17.39-0.27-27.3,0.1
	c3.17-15.74,5.28-32.57,6.58-49.24C622.92,786.58,631.5,786.41,640.23,786.41z"/>
<path class="st12" d="M650.93,837.18c-4.6,20.06-10.87,36.74-17.68,50.47c-14.99-0.34-29.43,0.04-43.21,0.97
	c1.19-2.09,2.31-4.23,3.38-6.43c6.32-13,11.04-28.89,14.49-46.06C624.84,835.51,639.71,835.84,650.93,837.18z"/>
<path class="st11" d="M640.75,734.98c-7.3-0.23-15.53-0.19-24.51,0.11c-0.14-17.97-1.04-33.78-2.24-45.25
	c5.34,0.02,10.74,0.1,16.19,0.25C636.04,706.36,639.26,720.94,640.75,734.98z"/>
<path class="st11" d="M605.95,638.15c-1.57,0.01-3.16,0.02-4.79,0.04c-1.1-3.25-2.29-6.59-3.56-10c0.59,0.67,1.19,1.35,1.77,2.04
	c0.12,0.15,0.25,0.29,0.38,0.44c0.31,0.37,0.63,0.74,0.94,1.1c0.88,1.04,1.76,2.09,2.63,3.16c0.87,1.05,1.73,2.1,2.59,3.17
	C605.93,638.12,605.94,638.13,605.95,638.15z"/>
<path class="st12" d="M638.88,690.35c-8.42-0.32-16.72-0.49-24.88-0.52c-0.66-6.4-1.43-11.45-2.21-14.79
	c-1.83-7.88-5.33-21.29-10.63-36.85c1.63-0.02,3.22-0.03,4.79-0.04C618.09,653.27,629.7,670.78,638.88,690.35z"/>
<path class="st12" d="M658.13,782.86c-0.06,1.27-0.13,2.53-0.2,3.77c-14.88-0.37-29.38-0.25-43.44,0.26
	c1.41-17.96,1.89-35.75,1.75-51.8c15.11-0.49,28.13-0.28,38.06,0.72C657.45,750.71,658.92,766.43,658.13,782.86z"/>
<path class="st13" d="M654.3,735.8c-4.03-0.4-8.56-0.68-13.54-0.83c-1.5-14.03-4.71-28.62-10.57-44.9c2.89,0.07,5.78,0.16,8.69,0.27
	c0.42,0.88,0.83,1.77,1.23,2.66c0.35,0.76,0.69,1.52,1.02,2.28c0.1,0.21,0.19,0.43,0.28,0.64c0.36,0.81,0.71,1.63,1.06,2.45
	c0.03,0.07,0.06,0.12,0.08,0.19c0.36,0.85,0.72,1.71,1.06,2.58c0.29,0.7,0.56,1.39,0.83,2.09c0.03,0.07,0.06,0.16,0.09,0.23
	c0.11,0.28,0.22,0.56,0.33,0.83c0.03,0.09,0.07,0.18,0.11,0.27c0.28,0.7,0.55,1.41,0.81,2.13c0.35,0.93,0.7,1.86,1.03,2.81
	c0.34,0.92,0.65,1.84,0.97,2.76c0.02,0.03,0.03,0.07,0.04,0.11c0.26,0.77,0.52,1.54,0.78,2.31c0.14,0.42,0.28,0.84,0.41,1.27
	c0.19,0.56,0.37,1.13,0.54,1.7c0.25,0.81,0.51,1.62,0.74,2.43c0.41,1.35,0.79,2.71,1.17,4.08c0.25,0.88,0.48,1.77,0.72,2.67
	c0.23,0.88,0.45,1.75,0.66,2.63c0.07,0.22,0.12,0.44,0.16,0.67c0.22,0.88,0.43,1.77,0.63,2.67
	C653.86,733.79,654.08,734.8,654.3,735.8z"/>
<path class="st13" d="M657.93,786.63c-0.07,1.15-0.14,2.29-0.21,3.42c0,0.05-0.01,0.11-0.02,0.16c-0.07,1.06-0.15,2.13-0.23,3.17
	c-0.01,0.1-0.02,0.19-0.02,0.29c-0.08,1.13-0.18,2.24-0.28,3.35c-0.1,1.13-0.2,2.25-0.31,3.36c-0.09,0.87-0.17,1.73-0.27,2.58
	c-0.07,0.65-0.14,1.3-0.21,1.94c-0.1,0.89-0.2,1.78-0.31,2.67c-0.02,0.12-0.02,0.24-0.04,0.35c-0.1,0.82-0.2,1.63-0.31,2.44
	c-0.23,1.79-0.48,3.57-0.74,5.32c-0.1,0.68-0.2,1.35-0.31,2.02c-0.07,0.47-0.14,0.93-0.21,1.4c-0.06,0.36-0.12,0.71-0.18,1.07
	c-0.11,0.65-0.21,1.29-0.33,1.93c-0.06,0.38-0.12,0.75-0.2,1.13c-0.26,1.52-0.53,3.02-0.83,4.5c0,0.02-0.01,0.04-0.01,0.06
	c-0.1,0.51-0.19,1.01-0.29,1.5c0,0.02-0.01,0.03-0.01,0.05c-0.14,0.73-0.29,1.46-0.44,2.18c-0.2,0.97-0.4,1.92-0.61,2.86
	c-0.2,0.95-0.42,1.89-0.63,2.82c-4.65-0.56-9.93-0.94-15.72-1.14c1.61-18.39,3.64-34.49,5.02-49.62
	C646.06,786.4,651.97,786.48,657.93,786.63z"/>
<path class="st13" d="M633.25,887.65c-0.25,0.51-0.5,1.01-0.75,1.5c-0.25,0.5-0.5,0.99-0.76,1.48c-0.77,1.49-1.55,2.94-2.33,4.36
	c-0.26,0.47-0.52,0.93-0.77,1.39c-0.05,0.09-0.09,0.17-0.15,0.25c-0.31,0.54-0.61,1.08-0.92,1.61c-0.61,1.06-1.23,2.1-1.85,3.12
	c-0.31,0.52-0.62,1.01-0.93,1.52c-0.3,0.5-0.61,1-0.92,1.48c-0.31,0.49-0.62,0.97-0.93,1.45c-0.3,0.48-0.61,0.96-0.92,1.42
	c-0.31,0.47-0.62,0.93-0.93,1.39c-0.3,0.46-0.61,0.91-0.92,1.36c-0.07,0.11-0.14,0.2-0.21,0.31c-0.56,0.79-1.1,1.55-1.64,2.31
	c-0.62,0.85-1.23,1.68-1.84,2.5c-0.3,0.4-0.61,0.8-0.92,1.2c-0.64,0.84-1.28,1.65-1.91,2.45c-0.25,0.31-0.5,0.62-0.74,0.92
	c-0.61,0.76-1.23,1.5-1.83,2.22c-0.29,0.35-0.58,0.7-0.88,1.03c-0.58,0.68-1.15,1.33-1.73,1.98c0,0.01-0.01,0.02-0.02,0.02
	c-0.49,0.54-0.97,1.08-1.44,1.59c-0.07,0.08-0.15,0.16-0.23,0.25c-0.28,0.3-0.56,0.6-0.83,0.89c-0.27,0.29-0.55,0.58-0.82,0.87
	c-0.27,0.29-0.54,0.56-0.81,0.83c-0.26,0.28-0.53,0.55-0.79,0.81c-0.22,0.23-0.44,0.45-0.66,0.67c-0.56,0.55-1.1,1.09-1.64,1.6
	c-0.25,0.25-0.5,0.48-0.74,0.7c-0.25,0.24-0.48,0.46-0.73,0.69c-0.23,0.22-0.46,0.43-0.69,0.64c-0.01,0.01-0.02,0.02-0.02,0.02
	c-0.39,0.36-0.77,0.7-1.15,1.04c-0.07,0.07-0.15,0.14-0.22,0.2c-0.44,0.39-0.88,0.77-1.3,1.13c-0.05,0.05-0.1,0.09-0.15,0.13
	c-0.16,0.14-0.33,0.28-0.48,0.4c-0.2,0.17-0.41,0.34-0.61,0.51c-0.16,0.14-0.31,0.26-0.47,0.38c-0.04,0.03-0.08,0.07-0.12,0.1
	c-0.19,0.16-0.38,0.31-0.56,0.46c-0.37,0.3-0.73,0.58-1.07,0.85c-0.17,0.13-0.34,0.26-0.51,0.38c-0.34,0.26-0.66,0.51-0.97,0.74
	c-0.33,0.25-0.64,0.47-0.93,0.68c-0.34,0.25-0.64,0.46-0.92,0.65c-0.28,0.2-0.53,0.36-0.75,0.51c-0.13,0.08-0.25,0.16-0.35,0.23
	c-0.08,0.06-0.16,0.1-0.22,0.14c-0.12,0.08-0.23,0.15-0.31,0.2c-0.06,0.04-0.1,0.07-0.13,0.08c-0.02,0.02-0.05,0.02-0.07,0.04
	c-0.01,0-0.02,0.01-0.02,0.02c-0.01,0.01-0.02,0.01-0.02,0.01c-0.01,0.01-0.02,0.01-0.02,0.01s-0.01,0.02-0.02,0.05
	c-0.01,0.01-0.01,0.02-0.01,0.02c-0.01,0-0.01,0.01-0.01,0.02c-0.04,0.08-0.1,0.2-0.2,0.37v0.01c-0.04,0.05-0.07,0.1-0.11,0.16
	c-0.05,0.07-0.11,0.15-0.19,0.23c-0.07,0.08-0.15,0.16-0.24,0.25l-0.16,0.16c-0.06,0.05-0.11,0.11-0.18,0.16
	c-0.09,0.08-0.2,0.16-0.31,0.25l-0.01,0.01c-0.02,0.02-0.06,0.03-0.08,0.05l-0.02,0.02c-0.06,0.04-0.11,0.08-0.18,0.12
	c-0.02,0.02-0.04,0.03-0.07,0.05c-0.08,0.06-0.17,0.11-0.27,0.17c-0.09,0.06-0.19,0.11-0.28,0.17c-0.25,0.15-0.53,0.29-0.85,0.45
	c-0.15,0.07-0.3,0.14-0.47,0.2c-0.19,0.08-0.38,0.16-0.59,0.25h-0.01c-0.15,0.06-0.3,0.11-0.46,0.17c-0.16,0.06-0.33,0.11-0.5,0.17
	c-0.17,0.06-0.35,0.11-0.53,0.16c-0.17,0.06-0.35,0.11-0.53,0.16c-0.65,0.17-1.37,0.34-2.15,0.49c-0.32,0.06-0.65,0.11-0.99,0.17
	h-0.01c-0.34,0.05-0.68,0.11-1.05,0.16c-0.11,0.02-0.21,0.03-0.32,0.04c-0.32,0.04-0.65,0.08-1.01,0.11
	c-0.28,0.03-0.56,0.06-0.85,0.08c-0.21,0.02-0.43,0.03-0.65,0.05c-0.44,0.03-0.9,0.07-1.37,0.09c-1.38,0.07-2.89,0.11-4.53,0.09
	c-0.25,0-0.51,0-0.76-0.01c-0.27,0-0.55-0.01-0.83-0.02h-0.09c-0.06,0-0.11-0.01-0.18-0.01c-0.16-0.01-0.33-0.01-0.5-0.02
	c2.64-2.58,5.61-5.57,8.78-8.89c1.01-1.05,2.03-2.13,3.07-3.24c12.07-12.88,26.55-30.04,37.95-48.74
	C621.62,887.49,627.39,887.52,633.25,887.65z"/>
<path class="st14" d="M587.67,943.38c0,0,0.01,0,0.02-0.01c0,0-0.05,0.18-0.25,0.47c0.11-0.16,0.16-0.29,0.2-0.37
	c0-0.01,0-0.02,0.01-0.02c0-0.01,0-0.02,0.01-0.02C587.67,943.39,587.67,943.38,587.67,943.38z"/>
<path class="st14" d="M601.21,932.47c0.54-0.52,1.09-1.05,1.64-1.6C602.3,931.43,601.75,931.96,601.21,932.47z"/>
<path class="st14" d="M658.15,782.85c-2.2,46.08-12.67,80.18-24.9,104.8c-5.86-0.13-11.63-0.16-17.31-0.07
	c10.09-16.55,17.78-34.28,19.26-51.33c0.01-0.07,0.02-0.14,0.02-0.21c5.79,0.2,11.07,0.59,15.72,1.14c0.21-0.93,0.43-1.87,0.63-2.82
	c0.2-0.94,0.41-1.9,0.61-2.86c0.16-0.72,0.3-1.45,0.44-2.18c0-0.02,0.01-0.03,0.01-0.05c0.11-0.5,0.2-1,0.29-1.5
	c0-0.02,0.01-0.04,0.01-0.06c0.29-1.48,0.56-2.98,0.83-4.5c0.07-0.38,0.14-0.75,0.2-1.13c0.11-0.64,0.22-1.28,0.33-1.93
	c0.06-0.36,0.12-0.71,0.18-1.07c0.07-0.47,0.15-0.93,0.21-1.4c0.11-0.67,0.21-1.34,0.31-2.02c0.26-1.75,0.52-3.53,0.74-5.32
	c0.11-0.81,0.21-1.62,0.31-2.44c0.02-0.11,0.02-0.23,0.04-0.35c0.11-0.88,0.21-1.77,0.31-2.67c0.07-0.64,0.15-1.28,0.21-1.94
	c0.1-0.85,0.18-1.71,0.27-2.58c0.11-1.11,0.21-2.23,0.31-3.36c0.1-1.11,0.2-2.22,0.28-3.35c0.01-0.1,0.02-0.19,0.02-0.29
	c0.08-1.05,0.16-2.11,0.23-3.17c0.01-0.05,0.02-0.11,0.02-0.16c0.07-1.13,0.15-2.27,0.21-3.42c-5.96-0.15-11.87-0.22-17.7-0.21
	c1.63-17.76,2.37-34.18,0.52-51.44c4.98,0.15,9.51,0.43,13.54,0.83c-0.21-1.01-0.43-2.01-0.66-3.02c-0.2-0.89-0.41-1.78-0.63-2.67
	c-0.04-0.23-0.1-0.45-0.16-0.67c-0.21-0.88-0.43-1.75-0.66-2.63c-0.24-0.89-0.47-1.78-0.72-2.67c-0.38-1.37-0.76-2.73-1.17-4.08
	c-0.24-0.81-0.49-1.62-0.74-2.43c-0.17-0.57-0.35-1.14-0.54-1.7c-0.13-0.43-0.27-0.85-0.41-1.27c-0.25-0.78-0.52-1.55-0.78-2.31
	c-0.01-0.04-0.02-0.08-0.04-0.11c-0.32-0.92-0.64-1.85-0.97-2.76c-0.34-0.94-0.68-1.87-1.03-2.81c-0.26-0.71-0.53-1.42-0.81-2.13
	c-0.03-0.09-0.07-0.18-0.11-0.27c-0.11-0.28-0.21-0.56-0.33-0.83c-0.03-0.07-0.06-0.16-0.09-0.23c-0.27-0.7-0.55-1.39-0.83-2.09
	c-0.34-0.87-0.7-1.73-1.06-2.58c-0.02-0.07-0.05-0.12-0.08-0.19c-0.34-0.82-0.7-1.64-1.06-2.45c-0.09-0.21-0.18-0.43-0.28-0.64
	c-0.34-0.76-0.67-1.52-1.02-2.28c-0.4-0.89-0.81-1.77-1.23-2.66c-2.91-0.11-5.81-0.2-8.69-0.27c-3.97-11.07-7.68-22.7-11.07-34.19
	C642.31,689.88,660.51,733.13,658.15,782.85z"/>
<path class="st15" d="M591.41,940.83c-0.33,0.25-0.64,0.47-0.93,0.68c-0.34,0.25-0.64,0.46-0.92,0.65c-0.28,0.2-0.53,0.36-0.75,0.51
	c-0.13,0.08-0.25,0.16-0.35,0.23c-0.08,0.06-0.16,0.1-0.22,0.14c-0.12,0.08-0.23,0.15-0.31,0.2c-0.06,0.04-0.1,0.07-0.13,0.08
	c-0.02,0.02-0.05,0.02-0.07,0.04c0.35,1.1,0.62,3.03,0.82,5.56l-51.54-0.36c-1.21-1.72-2.21-3.21-2.93-4.42
	c-2.27-0.49-4.63-1.19-7.05-2.07c-1.1-2.01-1.32-3.97,0.96-5.01c2.77-1.25,9.43-1.64,17.54-1.64c9.01,0,19.82,0.47,29.09,0.73
	c1.2,0.03,2.32,0.09,3.36,0.17C587.09,937,590.29,939.28,591.41,940.83z"/>
<g>
	<path class="st16" d="M587.98,1010.83c0,0-37.99-43.9-50.98-62.28c-1.21-1.72-2.21-3.21-2.93-4.42c-0.01-0.01-0.02-0.02-0.02-0.02
		v-0.01c-0.26-0.45-0.49-0.85-0.68-1.22v-0.01c-0.55-1.06-0.77-1.77-0.61-2.09c0.46-0.85,3.21-1.46,7.24-1.82h0.01
		c8.9-0.83,24.09-0.56,34.89,0.59c6.53,0.69,11.47,1.7,12.45,2.99c0.13,0.17,0.25,0.44,0.37,0.8c0.35,1.1,0.62,3.03,0.82,5.56
		C589.89,966.07,587.98,1010.83,587.98,1010.83z"/>
	<g>
		<path class="st17" d="M587.98,1010.84c0,0-0.06-0.07-0.17-0.2c0.02-8.25-0.5-15.91-1.41-22.97c-2.82-22.03-9.39-38.22-14.8-48.42
			c1.14,0.09,2.26,0.2,3.32,0.31c6.53,0.69,11.47,1.7,12.45,2.99c0.13,0.17,0.25,0.44,0.37,0.8c0.35,1.1,0.62,3.03,0.82,5.56
			c0.11,1.41,0.2,3.02,0.27,4.77C589.59,973.16,587.98,1010.84,587.98,1010.84z"/>
		<path class="st18" d="M588.82,953.68c0.77,19.47-0.83,57.15-0.83,57.15s-0.06-0.07-0.17-0.2c0.02-8.25-0.5-15.91-1.41-22.97
			C587.2,977.85,588.12,965.67,588.82,953.68z"/>
	</g>
</g>
<path class="st19" d="M475.35,649.83c-3.48,16.29-6.67,34.55-9.05,54.54c-12.56,2.51-24.02,5.14-34.23,7.7
	c3.57-21.4,9.46-40.92,15.78-57.52C456.89,652.86,466.09,651.28,475.35,649.83z"/>
<path class="st19" d="M487.58,602.22c-0.33,1.09-0.65,2.19-0.99,3.32c-5.89,1.03-11.61,2.11-17.13,3.21
	c3.92-6.8,6.46-10.53,6.46-10.53C484.77,599.48,486.73,601.32,487.58,602.22z"/>
<path class="st20" d="M486.59,605.54c-3.67,12.44-7.61,27.29-11.24,44.29c-9.26,1.45-18.46,3.03-27.5,4.72
	c7.7-20.23,16.03-36.12,21.6-45.79C474.98,607.65,480.7,606.57,486.59,605.54z"/>
<path class="st19" d="M467.87,807.03c-11.64,2.8-22.1,5.62-31.22,8.27c-2.9-10.93-5.22-22.99-6.71-36.24
	c-0.65-5.71-1.06-11.38-1.26-16.98c10.61-2.72,21.73-5.27,33.13-7.64c-0.52,11.01-0.25,19.81,1.26,29.03
	C464.42,791.74,466.05,799.59,467.87,807.03z"/>
<path class="st20" d="M461.81,754.44c-11.4,2.37-22.52,4.92-33.13,7.64c-0.63-17.41,0.75-34.22,3.39-50.01
	c10.21-2.56,21.67-5.19,34.23-7.7c-0.57,4.74-1.1,9.59-1.56,14.52C463.34,733.57,462.28,744.85,461.81,754.44z"/>
<path class="st19" d="M509.78,900.54c-6.08,1.41-11.82,2.86-17.19,4.32c-9.78-6.94-24.71-20.73-37.74-43.94
	c8.94-2.85,18.53-5.48,28.53-7.87C492.83,874.73,502.98,890.43,509.78,900.54z"/>
<path class="st20" d="M467.87,807.03c4.33,17.59,9.79,32.9,15.51,46.01c-9.99,2.39-19.59,5.02-28.53,7.87
	c-6.96-12.39-13.38-27.46-18.2-45.61C445.78,812.65,456.24,809.83,467.87,807.03z"/>
<path class="st20" d="M502.61,910.43c-1.38-0.3-5.03-2.04-10.02-5.58c5.37-1.46,11.11-2.9,17.19-4.32c1.63,2.41,3.06,4.5,4.24,6.28
	C514.58,907.65,509.01,911.83,502.61,910.43z"/>
<g>
	<g>
		<path class="st7" d="M617.46,237.91c-0.01-0.1-0.01-0.2-0.02-0.32c-0.01-0.2-0.02-0.42-0.02-0.65c-0.01-0.23-0.02-0.47-0.03-0.72
			c-0.06-1.1-0.15-2.46-0.27-4.05c-0.07-0.82-0.14-1.69-0.23-2.63c-0.03-0.37-0.07-0.75-0.11-1.14c-0.05-0.46-0.1-0.92-0.15-1.41
			c-0.11-1.1-0.25-2.27-0.4-3.48c-0.07-0.61-0.16-1.22-0.25-1.86c-0.01-0.07-0.02-0.14-0.02-0.2c-0.1-0.72-0.2-1.46-0.31-2.22
			c-0.07-0.5-0.15-1.01-0.23-1.51c-0.06-0.34-0.11-0.69-0.16-1.03c-0.38-2.44-0.84-5.02-1.37-7.7c-0.15-0.71-0.29-1.43-0.44-2.16
			c-0.58-2.78-1.25-5.66-2.01-8.62c-0.21-0.82-0.43-1.64-0.65-2.46c-0.66-2.41-1.38-4.87-2.18-7.35c-0.11-0.34-0.22-0.69-0.34-1.04
			c-0.34-1.07-0.71-2.15-1.09-3.23c-0.07-0.22-0.15-0.43-0.23-0.65c-0.23-0.66-0.47-1.32-0.71-1.99c-0.43-1.19-0.89-2.39-1.37-3.59
			c-0.4-1.01-0.81-2.02-1.23-3.03c-1.06-2.52-2.2-5.05-3.43-7.55c-0.25-0.5-0.49-1-0.74-1.5c-0.25-0.51-0.52-1.01-0.78-1.52
			c-0.25-0.49-0.52-0.98-0.78-1.46c-1.33-2.49-2.76-4.94-4.28-7.35c-0.58-0.92-1.18-1.85-1.78-2.76c-0.43-0.64-0.86-1.27-1.3-1.9
			c-0.25-0.35-0.5-0.71-0.75-1.06c-0.6-0.84-1.21-1.67-1.84-2.49c-0.43-0.56-0.85-1.11-1.29-1.66c-0.36-0.46-0.73-0.91-1.1-1.36
			c-0.01-0.02-0.03-0.04-0.05-0.07c-0.35-0.43-0.71-0.86-1.07-1.28c-0.38-0.45-0.76-0.89-1.15-1.32c-0.38-0.44-0.78-0.88-1.17-1.31
			c-0.39-0.43-0.79-0.87-1.2-1.29c-0.4-0.43-0.8-0.84-1.21-1.26c-0.01-0.02-0.02-0.02-0.03-0.03c-0.4-0.41-0.82-0.83-1.23-1.23
			c-1.97-1.94-4.04-3.8-6.22-5.57c-0.31-0.26-0.62-0.52-0.94-0.76c-1.26-1.01-2.54-1.98-3.88-2.91c-0.47-0.34-0.95-0.67-1.43-1
			c-0.02-0.02-0.05-0.03-0.07-0.05c-0.51-0.34-1.02-0.69-1.54-1.02c-0.5-0.32-1.01-0.64-1.51-0.96c-0.05-0.03-0.11-0.07-0.16-0.1
			c-0.48-0.29-0.97-0.59-1.46-0.88c-0.02-0.02-0.05-0.03-0.07-0.05c-0.45-0.26-0.9-0.52-1.36-0.78c-0.66-0.38-1.32-0.74-2-1.1
			c-0.43-0.23-0.88-0.46-1.32-0.69c-1.32-0.68-2.68-1.32-4.06-1.93c-0.49-0.22-0.98-0.43-1.48-0.65c-0.45-0.19-0.9-0.38-1.35-0.56
			c-0.36-0.15-0.73-0.29-1.1-0.43c-1.16-0.46-2.34-0.89-3.54-1.29h-0.01v-0.01c-10.06-3.44-21.53-5.4-34.57-5.4
			c-105.86,0-102.11,124.66-102.11,124.66c3.76,50.12,21.93,65.15,33.21,78.93c4.47,5.46,14.76,13.99,26.29,22.29
			c3,2.16,6.08,4.3,9.18,6.37c0.47,0.31,0.93,0.62,1.4,0.93c3.27,2.18,6.53,4.24,9.68,6.16c0.91,0.55,1.8,1.09,2.67,1.6
			c2.25,1.32,4.43,2.56,6.51,3.66c0.69,0.37,1.36,0.72,2.02,1.06c0.11,0.06,0.23,0.12,0.35,0.18c0.35,0.18,0.7,0.35,1.04,0.52
			c0.05,0.03,0.1,0.06,0.14,0.07c0.34,0.16,0.66,0.32,0.98,0.47c0.74,0.36,1.46,0.69,2.15,1c0.7,0.31,1.37,0.59,2.01,0.85
			c0.33,0.13,0.64,0.25,0.95,0.37c0.05,0.02,0.1,0.04,0.15,0.06c0.26,0.1,0.52,0.19,0.77,0.28c0.6,0.21,1.16,0.39,1.69,0.54
			c0.2,0.06,0.41,0.11,0.61,0.16c0.31,0.08,0.61,0.15,0.91,0.2c0.24,0.05,0.47,0.08,0.69,0.11c0.04,0.01,0.08,0.02,0.11,0.02
			c0.18,0.02,0.35,0.04,0.52,0.06c0.2,0.02,0.39,0.02,0.57,0.02c11.9,0,49.5-23.81,75.19-50.74c25.68-26.94,29.44-70.79,29.44-70.79
			S617.49,238.89,617.46,237.91z M564.37,303.68c-6.04,2.49-12.04,4.47-17.93,6.01c-6.59,1.73-13.05,2.92-19.29,3.67
			c3.32-2.17,6.5-4.51,9.47-7.04c5.32-0.75,10.81-1.76,16.46-3.05c3.93-0.9,7.94-1.94,12.02-3.13
			C565.03,302.52,564.37,303.68,564.37,303.68z"/>
		<path class="st10" d="M617.5,239.41c0,0-3.76,43.85-29.44,70.79c-25.69,26.93-63.29,50.74-75.19,50.74
			c-0.18,0-0.38-0.01-0.57-0.02c-0.17-0.02-0.34-0.03-0.52-0.06c-0.03,0-0.07-0.01-0.11-0.02c-0.22-0.03-0.45-0.07-0.69-0.11
			c-0.29-0.06-0.6-0.12-0.91-0.2c-0.2-0.05-0.4-0.11-0.61-0.16c-0.53-0.15-1.1-0.33-1.69-0.54c-0.25-0.09-0.51-0.18-0.77-0.28
			c-0.05-0.02-0.1-0.03-0.15-0.06c-0.31-0.11-0.62-0.24-0.95-0.37c-0.65-0.26-1.32-0.54-2.01-0.85c-0.7-0.31-1.41-0.64-2.15-1
			c-0.32-0.16-0.65-0.31-0.98-0.47c-0.04-0.02-0.09-0.04-0.14-0.07c-0.34-0.16-0.69-0.34-1.04-0.52c-0.12-0.06-0.24-0.12-0.35-0.18
			c-0.66-0.34-1.33-0.69-2.02-1.06c-2.08-1.1-4.26-2.34-6.51-3.66c-0.88-0.52-1.77-1.06-2.67-1.6c-3.16-1.91-6.41-3.98-9.68-6.16
			c-0.47-0.31-0.93-0.62-1.4-0.93c-3.09-2.07-6.17-4.21-9.18-6.37c0.7,0.11,41.89,6.3,78.68-26.56c5.89-1.55,11.89-3.52,17.93-6.01
			c0,0,0.66-1.16,0.74-3.54c-4.08,1.19-8.09,2.23-12.02,3.13c2.36-2.47,4.7-5.13,6.99-7.97c39.67-49.28,29.23-102.32,20.88-120.7
			c-5.59-12.3-20.72-38.63-36-58.82c1.2,0.4,2.38,0.83,3.54,1.29c0.37,0.14,0.74,0.29,1.1,0.43c0.45,0.18,0.9,0.37,1.35,0.56
			c0.5,0.21,0.99,0.43,1.48,0.65c1.38,0.61,2.74,1.25,4.06,1.93c0.45,0.23,0.89,0.46,1.32,0.69c0.68,0.36,1.34,0.72,2,1.1
			c0.46,0.25,0.91,0.52,1.36,0.78c0.02,0.02,0.05,0.03,0.07,0.05c0.49,0.29,0.97,0.58,1.46,0.88c0.06,0.03,0.11,0.07,0.16,0.1
			c0.51,0.32,1.01,0.64,1.51,0.96c0.52,0.34,1.03,0.68,1.54,1.02c0.02,0.02,0.05,0.03,0.07,0.05c0.48,0.33,0.97,0.66,1.43,1
			c1.33,0.93,2.62,1.91,3.88,2.91c0.32,0.25,0.63,0.5,0.94,0.76c2.18,1.77,4.24,3.63,6.22,5.57c0.42,0.41,0.83,0.83,1.23,1.23
			c0.01,0.01,0.02,0.02,0.03,0.03c0.41,0.42,0.81,0.83,1.21,1.26c0.41,0.43,0.81,0.86,1.2,1.29c0.39,0.43,0.79,0.87,1.17,1.31
			c0.38,0.43,0.77,0.88,1.15,1.32c0.36,0.42,0.72,0.84,1.07,1.28c0.02,0.02,0.04,0.04,0.05,0.07c0.37,0.45,0.74,0.9,1.1,1.36
			c0.44,0.55,0.87,1.1,1.29,1.66c0.63,0.83,1.24,1.65,1.84,2.49c0.25,0.35,0.51,0.71,0.75,1.06c0.44,0.63,0.88,1.26,1.3,1.9
			c0.61,0.91,1.2,1.83,1.78,2.76c1.52,2.41,2.94,4.87,4.28,7.35c0.26,0.48,0.52,0.97,0.78,1.46c0.26,0.51,0.52,1.01,0.78,1.52
			c0.25,0.5,0.5,1,0.74,1.5c1.23,2.5,2.37,5.03,3.43,7.55c0.43,1.01,0.83,2.02,1.23,3.03c0.47,1.2,0.93,2.4,1.37,3.59
			c0.25,0.66,0.48,1.32,0.71,1.99c0.08,0.21,0.16,0.43,0.23,0.65c0.38,1.08,0.74,2.16,1.09,3.23c0.11,0.35,0.23,0.7,0.34,1.04
			c0.79,2.49,1.51,4.94,2.18,7.35c0.22,0.83,0.44,1.64,0.65,2.46c0.76,2.96,1.43,5.84,2.01,8.62c0.15,0.73,0.29,1.45,0.44,2.16
			c0.53,2.68,0.99,5.27,1.37,7.7c0.06,0.34,0.11,0.69,0.16,1.03c0.08,0.51,0.16,1.01,0.23,1.51c0.11,0.75,0.21,1.5,0.31,2.22
			c0.01,0.07,0.02,0.14,0.02,0.2c0.09,0.64,0.16,1.25,0.25,1.86c0.15,1.21,0.29,2.37,0.4,3.48c0.05,0.48,0.1,0.95,0.15,1.41
			c0.04,0.38,0.07,0.77,0.11,1.14c0.09,0.93,0.16,1.81,0.23,2.63c0.12,1.59,0.21,2.95,0.27,4.05c0.01,0.25,0.02,0.49,0.03,0.72
			c0.01,0.23,0.02,0.45,0.02,0.65c0.01,0.11,0.01,0.22,0.02,0.32C617.49,238.89,617.5,239.41,617.5,239.41z"/>
		<path class="st21" d="M560.08,295.3c-2.29,2.85-4.63,5.5-6.99,7.97c-5.64,1.29-11.14,2.3-16.46,3.05
			c7.25-6.19,13.19-13.5,16.55-22.1c15.45-39.46,57.14-53.1-8.23-168.45c15.28,20.19,30.42,46.52,36,58.82
			C589.31,192.97,599.75,246.01,560.08,295.3z"/>
		<path class="st19" d="M497.43,113.5c0,0-64.94,15.03-68.28,57.84c-3.34,42.81-18.87,83.3-5.22,110.67c0,0,0.18-35.29,4.2-50.88
			c4.02-15.59,7.29-69.61,10.84-72.53C450.13,138.98,473.1,124.99,497.43,113.5z"/>
	</g>
	<path class="st21" d="M527.2,313.38c6.23-0.75,12.69-1.95,19.29-3.67c-36.79,32.85-77.98,26.66-78.68,26.56
		C467.81,336.26,501.43,330.22,527.2,313.38z"/>
</g>
<g>
	<path class="st22" d="M578.8,295.56c0,0-18.39,35.08-64.74,33.41c-46.35-1.68-68.9-33.41-68.9-33.41s4.74,2.39,13.36,5.09
		c19.3,6.04,58.07,13.65,106.55-0.56C569.56,298.78,574.14,297.27,578.8,295.56z"/>
	<path class="st23" d="M545.96,323.59c-0.92,0.38-1.87,0.74-2.84,1.1h-0.01c-8.12,2.93-17.76,4.71-29.08,4.3
		c-9.18-0.33-17.42-1.84-24.75-4.05c-0.69-0.21-1.37-0.43-2.04-0.65c-0.52-0.17-1.05-0.34-1.56-0.52
		C485.68,323.77,511.32,309.74,545.96,323.59z"/>
	<path class="st24" d="M545.96,323.59c-0.92,0.38-1.87,0.74-2.84,1.1h-0.01c-29.7-9.3-53.83,0.25-53.83,0.25
		c-0.69-0.21-1.37-0.43-2.04-0.65c-0.52-0.17-1.05-0.34-1.56-0.52C485.68,323.77,511.32,309.74,545.96,323.59z"/>
	<path class="st25" d="M553.04,303.23c-2.19,2.29-4.41,4.43-6.64,6.42c-6.59,1.73-13.05,2.92-19.29,3.67
		c3.32-2.17,6.5-4.51,9.47-7.04C541.9,305.53,547.39,304.52,553.04,303.23z"/>
	<path class="st26" d="M536.58,306.28c-2.97,2.54-6.15,4.87-9.47,7.04c-37.36,4.56-66.56-6.22-67.61-7.6
		c-0.77-1-0.97-3.25-0.99-5.07C473.86,305.46,501.51,311.25,536.58,306.28z"/>
	<path class="st19" d="M565.06,300.1c-0.07,2.38-0.74,3.54-0.74,3.54c-6.04,2.49-12.04,4.47-17.93,6.01
		c2.23-1.99,4.45-4.13,6.64-6.42C556.97,302.33,560.98,301.29,565.06,300.1z"/>
</g>
<g>
	<path class="st2" d="M619.49,173.55c0,0-22.03-29.94-50.62,1.08c-15.44,25.37-14.53,52.18-8.92,71.52
		c5.61,19.34,12.45,32.97,23.6,35.31c11.15,2.34,20.64-6.83,27.07-16.31c6.43-9.47,17.52-49.37,16.71-63.71
		C626.52,187.11,619.49,173.55,619.49,173.55z"/>
	
		<ellipse transform="matrix(0.3856 -0.9227 0.9227 0.3856 185.7586 649.5048)" class="st19" cx="580.57" cy="185.27" rx="15.35" ry="10.13"/>
	<path class="st4" d="M627.37,207.75c-0.54,6.2-2.09,14.33-4.13,22.59c-9.7,18.56-23.05,34.21-31.23,41.26
		c-6.46,5.56-16.1,1.6-23.19-2.82c-2.32-4.11-4.38-9.05-6.27-14.62c5.05,5.17,13.48,12.33,20.04,10.55
		C591.24,262.37,617.65,229.04,627.37,207.75z"/>
	<path class="st3" d="M627.34,207.91c-9.72,21.29-36.13,54.62-44.79,56.96c-6.56,1.77-14.99-5.38-20.04-10.55
		c-0.83-2.41-1.61-4.95-2.38-7.59c-0.8-2.77-1.51-5.7-2.09-8.76c5.91,2.07,14.01,2.27,24.92-2.04
		c20.17-7.96,33.67-33.49,40.17-53.64c1.9,5.22,3.95,12.37,4.37,19.72C627.61,203.66,627.55,205.66,627.34,207.91z"/>
	<path class="st27" d="M623.11,229.94c-3.62,14.72-8.76,29.85-12.41,35.23c-6.43,9.47-15.92,18.65-27.06,16.31
		c-6.11-1.28-10.93-5.95-14.95-13.09c7.09,4.42,16.73,8.38,23.19,2.82C600.06,264.15,613.41,248.5,623.11,229.94z"/>
</g>
<g>
	<g>
		<path class="st2" d="M404.59,173.55c0,0,22.03-29.94,50.62,1.08c15.44,25.37,14.53,52.18,8.92,71.52
			c-5.61,19.34-12.45,32.97-23.6,35.31c-11.15,2.34-20.64-6.83-27.07-16.31c-6.43-9.47-17.52-49.37-16.71-63.71
			C397.56,187.11,404.59,173.55,404.59,173.55z"/>
		<path class="st27" d="M401.16,229.94c3.62,14.72,8.76,29.85,12.41,35.23c6.43,9.47,15.92,18.65,27.06,16.31
			c6.11-1.28,10.93-5.95,14.95-13.09c-7.09,4.42-16.73,8.38-23.19,2.82C424.2,264.15,410.85,248.5,401.16,229.94z"/>
		<path class="st4" d="M396.89,207.61c0.54,6.2,2.09,14.33,4.13,22.59c9.7,18.56,23.05,34.21,31.23,41.26
			c6.46,5.56,16.1,1.6,23.19-2.82c2.32-4.11,4.38-9.05,6.27-14.62c-5.05,5.17-13.48,12.33-20.04,10.55
			C433.03,262.23,406.62,228.9,396.89,207.61z"/>
		<path class="st3" d="M396.92,207.77c9.72,21.29,36.13,54.62,44.79,56.96c6.56,1.77,14.99-5.38,20.04-10.55
			c0.83-2.41,1.61-4.95,2.38-7.59c0.8-2.77,1.51-5.7,2.09-8.76c-5.91,2.07-14.01,2.27-24.92-2.04
			c-20.17-7.96-33.67-33.49-40.17-53.64c-1.9,5.22-3.95,12.37-4.37,19.72C396.66,203.52,396.72,205.52,396.92,207.77z"/>
	</g>
	<ellipse class="st19" cx="414.98" cy="187.15" rx="10.13" ry="15.35"/>
</g>
<path class="st28" d="M549.29,942.16c0,0-7.52-1.22-10.3,0.59c-2.78,1.81,7.38,13.36,7.38,13.36S542.19,947.97,549.29,942.16z"/>
<path class="st8" d="M682.16,648.11c-0.07,0.94-0.59,6.83-5.77,10.87c-5.53,4.32-11.84,3-12.68,2.81
	c-9.09-1.19-22.23-9.67-35.23-20.96c8.78-5.2,18.32-13.6,17.4-25.25c-1.3-16.51-29.92-57.36-60.66-80.76
	c14.93,5.94,36.48,19.02,59.15,46.88C655.5,595.41,670.59,617.2,682.16,648.11z"/>
<path class="st17" d="M682.16,648.11c-0.07,0.94-0.59,6.83-5.77,10.87c-5.53,4.32-11.84,3-12.68,2.81
	c-3.18-0.41-6.85-1.72-10.84-3.72c-7.42-3.74-15.94-9.9-24.4-17.24c8.78-5.2,18.32-13.6,17.4-25.25
	c-1.3-16.51-29.92-57.36-60.66-80.76c9.37,3.73,21.35,10.26,34.58,21.51c7.84,6.67,16.13,14.99,24.57,25.37
	C655.5,595.41,670.59,617.2,682.16,648.11z"/>
<g>
	<path class="st8" d="M762.4,775.14c0,0-2.51,17.96-24.64,17.96c-16.29-4.59-45.52-47.19-51.37-68.91
		c-5.85-21.72-17.99-49.28-20.06-62.64c-2.07-13.36,9.56-9.99,9.56-9.99s33.89,23.77,56.44,60.1S761.99,763.44,762.4,775.14z"/>
	<g>
		<path class="st17" d="M762.4,775.14c0,0-2.51,17.95-24.64,17.95c-2.04-0.57-4.29-1.74-6.67-3.4c-5.4-3.75-11.47-9.98-17.38-17.33
			c10.5-1.22,20.37-4.74,24.36-13.02c5.65-11.74-17.23-55.8-45.31-94.01c8.38,7.55,18.79,17.93,28.52,30.49
			c3.84,4.96,7.58,10.25,11.05,15.83C754.89,748,761.99,763.45,762.4,775.14z"/>
		<path class="st18" d="M762.4,775.14c0,0-2.51,17.95-24.64,17.95c-2.04-0.57-4.29-1.74-6.67-3.4c8.16-3.5,15.59-10.35,19.51-23.01
			c-1.36-12.27-13.34-44.07-29.32-70.85c3.84,4.96,7.58,10.25,11.05,15.83C754.89,748,761.99,763.45,762.4,775.14z"/>
	</g>
</g>
<g>
	<path class="st29" d="M792.1,800.91c-0.31-1.6-1.43-7.48-5.58-9.79c-0.61-0.34-1.05-0.47-3.27-1.5c-3.48-1.6-5.87-2.86-6.33-3.09
		c-1.84-0.93-13.22-5.86-26.54-2.97c-7.71,1.67-13.66,6.71-25.56,16.77c-1.29,1.09-3.47,3-4.79,6.2c0,0-1.85,4.5-0.58,9.98
		c2.25,9.67,22.39,21.5,41.72,17.35C780.98,829.6,793.83,809.89,792.1,800.91z"/>
	<path class="st7" d="M720.04,806.52c11.11-12.43,27.4-30.53,66.48-15.41c0,0-23.95-14.17-39.4-11.4S719.64,806.4,720.04,806.52z"/>
</g>
<path class="st30" d="M177.53,813.67"/>
<path class="st8" d="M241.94,774.51c0,0,2.51,17.96,24.64,17.96c16.29-4.59,45.52-47.19,51.37-68.91
	c5.85-21.72,17.99-49.28,20.06-62.64c2.07-13.36-9.56-9.99-9.56-9.99s-33.89,23.77-56.44,60.1
	C249.46,747.36,242.36,762.82,241.94,774.51z"/>
<path class="st31" d="M338.02,660.91c-1.98,12.79-13.19,38.6-19.28,59.83c-0.27,0.96-0.53,1.89-0.79,2.82
	c-5.85,21.71-35.09,64.32-51.37,68.9c-13.63,0-19.82-6.8-22.56-12.03c-1.72-3.26-2.09-5.92-2.09-5.92c0.2-5.72,2-12.33,6.43-21.85
	c9.25,1.94,20.66,0.52,34.29-7.66c21.78-13.07,42.84-49.11,55.55-88.15C338.31,658,338.26,659.34,338.02,660.91z"/>
<path class="st32" d="M318.74,720.74c-0.27,0.96-0.53,1.89-0.79,2.82c-5.85,21.71-35.09,64.32-51.37,68.9
	c-13.63,0-19.82-6.8-22.56-12.03c7.83-1.1,16.53-4.6,26.11-11.52C288.24,755.83,304.82,738.19,318.74,720.74z"/>
<g>
	<path class="st8" d="M341.19,607.81c0,0-25.5,20.57-16.45,48.95c9.05,28.38,56.22-5.76,69.04-19.74s72.46-80.62,85.21-102.42
		c0-8.23-0.82-12.75-10.69-11.52S387.67,569.56,341.19,607.81z"/>
	<g>
		<path class="st17" d="M478.98,534.37v0.22c-1.12,1.92-2.61,4.19-4.39,6.73c-18.49,26.39-69.13,82.93-80.82,95.69
			c-12.82,13.99-59.99,48.13-69.04,19.75c-1.16-3.64-1.76-7.16-1.91-10.51c-0.69-15.29,7.79-27.36,13.46-33.65
			c3.27,9.66,8.96,16.79,18.66,16.59C375.36,628.76,440.66,574.11,478.98,534.37z"/>
		<path class="st18" d="M474.59,541.32c-18.49,26.39-69.13,82.93-80.82,95.69c-12.82,13.99-59.99,48.13-69.04,19.75
			c-1.16-3.64-1.76-7.16-1.91-10.51c5.68,4.28,12.05,6.38,18.85,4.2C360.49,644.42,427.46,598.78,474.59,541.32z"/>
	</g>
</g>
<path class="st29" d="M286.87,795.33c0,0,1.46,29.23-22.76,32.37c-24.22,3.13-93.55-12.53-113.39-24.85
	c-10.65-8.56-16.91-31.95-7.1-38.84c9.81-6.89,88.96-1.04,88.96-1.04l49.07,24.64L286.87,795.33z"/>
<path class="st7" d="M247.89,755.39c0,0,4.44,19.57,33.82,23.35c3.49,1.56,2.44,1.97,2.44,1.97s3.13,9.19,2.71,14.62
	c-6.5-4.35-15.99-10.11-28.09-15.41c-58.65-25.69-108.82-16.15-115.16-15.91c2.44-2.12,27.15-7.69,56.66-9.33
	c11.3-0.63,37.96,0.33,45.56,0.63C247.51,755.03,247.89,755.39,247.89,755.39z"/>
<g>
	<path class="st18" d="M537.78,158.43c0,0,42.99-100.86,74.87-129.67c31.88-28.82,21.23,100.86,21.23,100.86l-11.36,1.25
		c0,0,6.98-93.64-4.26-86.45c-10.07,4.39-67.57,93.81-73.13,114.01C541.11,163.23,537.78,158.43,537.78,158.43z"/>
	
		<ellipse transform="matrix(0.1811 -0.9835 0.9835 0.1811 374.1981 732.4138)" class="st18" cx="626.89" cy="141.51" rx="17.66" ry="12.62"/>
</g>
<g>
	<path class="st18" d="M489.38,158.43c0,0-42.99-100.86-74.87-129.67s-21.23,100.86-21.23,100.86l11.36,1.25
		c0,0-6.98-93.64,4.26-86.45c10.07,4.39,67.57,93.81,73.13,114.01C486.04,163.23,489.38,158.43,489.38,158.43z"/>
	
		<ellipse transform="matrix(0.9835 -0.1811 0.1811 0.9835 -19.0085 74.8228)" class="st18" cx="400.26" cy="141.51" rx="12.62" ry="17.66"/>
</g>
<path class="st33" d="M206.19,477.89c0,0-2.09,14.88,13.36,14.04s71-30.9,79.77-37.17c8.77-6.26,23.25-19.63,23.94-22.41
	s-2.26-17.5-5.66-18.56s-52.53,13.69-64.23,24.27C238.87,448.08,219.41,460.93,206.19,477.89z"/>
<path class="st34" d="M323.26,432.36c-0.7,2.78-15.18,16.14-23.95,22.41c-8.77,6.26-64.32,36.34-79.77,37.17
	c-7.16,0.38-10.55-2.6-12.13-5.91c-1.84-3.84-1.23-8.13-1.23-8.13c1.12-1.44,2.29-2.85,3.5-4.22c20.4-2.62,49.69-9.77,75.43-28.95
	c13.54-10.08,25.2-19.14,35.03-27.68c0.94,2.09,1.75,4.87,2.33,7.52C323.21,428,323.56,431.2,323.26,432.36z"/>
<path class="st35" d="M323.26,432.36c-0.7,2.78-15.18,16.14-23.95,22.41c-8.77,6.26-64.32,36.34-79.77,37.17
	c-7.16,0.38-10.55-2.6-12.13-5.91c17.18-2.31,39.72-8.33,64.29-22.73c19.69-11.54,36.89-25.58,50.76-38.73
	C323.21,428,323.56,431.2,323.26,432.36z"/>
<path class="st33" d="M326.05,435.17c0,0,49.7,4.91,82.27-10.07c32.58-14.99,47.19-20,53.46-28.77c6.26-8.77,6.91-15.17,0-18.38
	c-6.91-3.2-55.96,1.25-72.67,7.52c-16.71,6.26-53.04,10.02-67.66,23.8C306.84,423.06,321.98,434.23,326.05,435.17z"/>
<path class="st36" d="M466.65,385.94c-0.22,1.86-0.97,3.94-2.22,6.24c-0.72,1.32-1.61,2.72-2.65,4.16
	c-6.26,8.77-20.88,13.78-53.46,28.76c-32.58,14.99-82.27,10.08-82.27,10.08c-2.16-0.5-7.43-3.88-9.72-9
	c-1.6-3.57-1.76-7.97,1.59-12.84c11.08,2.35,29.73,1.91,61.07-5.64C426.44,396.29,449.45,391.47,466.65,385.94z"/>
<path class="st37" d="M464.33,392.16c-0.72,1.32-1.61,2.72-2.65,4.16c-6.26,8.77-20.88,13.78-53.46,28.76
	c-32.58,14.99-82.27,10.08-82.27,10.08c-2.16-0.5-7.43-3.88-9.72-9c11.2,3.12,30.42,3.87,63.22-4
	C421.98,411.98,447.34,402.13,464.33,392.16z"/>
<g>
	<path class="st33" d="M778.82,558.08c0,0-3.81,14.53-17.75,7.8c-13.94-6.73-53.59-55.89-59.27-65.05
		c-5.68-9.16-13.88-27.08-13.45-29.91c0.43-2.84,8.83-15.27,12.38-14.95c3.54,0.33,43.19,32.89,49.9,47.16
		C760.16,517.97,773.16,537.32,778.82,558.08z"/>
	<path class="st34" d="M688.36,470.92c-0.43,2.83,7.78,20.75,13.45,29.91c5.67,9.16,45.33,58.33,59.26,65.06
		c6.45,3.11,10.74,1.67,13.47-0.78c3.18-2.84,4.27-7.02,4.27-7.02c-0.48-1.76-1.02-3.51-1.6-5.24
		c-17.81-10.28-42.07-28.18-58.43-55.8c-8.61-14.53-15.87-27.37-21.64-39.05c-1.67,1.56-3.49,3.82-5.05,6.04
		C690.09,466.91,688.53,469.74,688.36,470.92z"/>
	<path class="st35" d="M688.36,470.92c-0.43,2.83,7.78,20.75,13.45,29.91c5.67,9.16,45.33,58.33,59.26,65.06
		c6.45,3.11,10.74,1.67,13.47-0.78c-14.97-8.75-33.44-23.01-50.56-45.76c-13.72-18.24-24.18-37.83-31.9-55.31
		C690.09,466.91,688.53,469.74,688.36,470.92z"/>
	<path class="st33" d="M684.71,472.44c0,0-47.75-14.63-72.03-41.02c-24.28-26.39-35.83-36.65-38.23-47.16
		c-2.4-10.51-0.53-16.67,7.09-16.95c7.61-0.29,51.15,22.74,64.15,34.96s45.07,29.7,53.24,48.05
		C707.1,468.67,688.82,473.14,684.71,472.44z"/>
	<path class="st36" d="M573.96,372.8c-0.51,1.8-0.62,4.01-0.35,6.62c0.16,1.49,0.44,3.13,0.84,4.86
		c2.4,10.51,13.95,20.77,38.23,47.15c24.28,26.39,72.02,41.02,72.02,41.02c2.18,0.37,8.35-0.71,12.44-4.55
		c2.85-2.67,4.7-6.68,3.48-12.46c-11.13-2.11-28.16-9.71-54.17-28.75C607.06,397.86,587.7,384.53,573.96,372.8z"/>
	<path class="st37" d="M573.7,379.44c0.16,1.49,0.44,3.13,0.84,4.86c2.4,10.51,13.95,20.77,38.23,47.15
		c24.28,26.39,72.02,41.02,72.02,41.02c2.18,0.37,8.35-0.71,12.44-4.55c-11.54-1.43-29.56-8.16-56.79-28.07
		C605.13,414.05,585.53,395.19,573.7,379.44z"/>
</g>
<g>
	<path class="st7" d="M213.72,503.58c-0.38,2.86-1.86,9.3-5.17,11.01c-0.38,0.2-0.79,0.34-1.23,0.4c0,0,2.22,12.95-1.4,16.15
		c-3.61,3.2-13.36,8.77-19.21,9.05c-5.84,0.28-5.84,0.7-8.35-2.36c-0.18-0.22-0.35-0.44-0.51-0.66c-2.04-2.81-2.27-5.29-2.54-5.55
		c-0.29-0.28-1.62-1.41-2.76-1.41c-1.15,0-8.46,0.38-11.38,0.07c-2.92-0.31-6.71-3.2-7.27-6.22c-0.56-3.03-1.36-8.6-2.13-9.64
		s-2.05-2.93-2.99-2.99c-0.94-0.07-6.71-1.08-9.12-5.05c-2.4-3.97-4.11-12.73-2.4-16.01c1.7-3.27,3.37-7.87,6.78-10.93
		c3.41-3.06,11.77-10.02,13.44-10.85c0.48-0.25,1.25-0.4,2.13-0.48c0.89-0.09,1.9-0.11,2.85-0.07l0.49,0.02
		c1.14,0.06,2.15,0.18,2.73,0.33c0,0,0.05-0.08,0.14-0.24c0.01-0.01,0.02-0.02,0.02-0.03c1.15-1.82,8.2-12.24,21.27-13.51
		c4.59-0.44,8.24,1.3,11.09,4.04c6.05,5.82,8.41,16.13,8.12,19.35c-0.42,4.73,1.26,9.05,2.37,10.44
		C209.82,489.79,214.13,500.37,213.72,503.58z"/>
	<path class="st38" d="M187.69,512.56c0,0,4.93-2.44,11.13-2.43s8.49,4.85,8.49,4.85"/>
	<path class="st12" d="M196.74,493.22c-0.1,8.66-4.63,12.81-7.85,13.81c-1.92,0.67-2.02,0.82-2.29,0.81
		c-0.15-0.01-0.56-0.66-1.22-1.41c-0.53-0.58-1.21-1.23-2.08-1.69c0.5,0,18.05-0.21,4.39-29.22c-0.34-0.43-0.4-0.55-0.25-0.41
		C188.37,475.92,196.83,485.8,196.74,493.22z"/>
	<path class="st39" d="M194.09,498.85c-0.89,3.85-5.61,6.34-8.37,7.49c-0.52-0.58-1.18-1.22-2.02-1.68c0.49,0,17.56-0.2,4.27-29.13
		c-0.33-0.43-0.39-0.55-0.24-0.41C191.7,481.22,195.17,494.19,194.09,498.85z"/>
	<g>
		<path class="st38" d="M169.63,497.98c0,0-8.73,12.75-16.81,13.24c-4.46,0.27-7.66-0.47-9.95-1.88c-1.86-1.13-3.13-2.7-3.99-4.49
			c0,0,11.75,4.99,24.74-6.58c0.56-0.51,1.13-1.04,1.68-1.6c0.51-0.5,1.01-1.02,1.51-1.57l0.96,0.98L169.63,497.98z"/>
		<path class="st38" d="M166,498.8C166,498.8,166,498.8,166,498.8c-0.31,0.06-0.67,0.07-1.1,0.02c-0.43-0.04-0.86-0.24-1.28-0.56
			c-3.3-2.51-5.99-12.62-5.99-12.62c0.95-0.11,1.77-0.02,2.4,0.11c0.89,0.21,1.41,0.52,1.41,0.52s1.85,4.33,2.67,5.73
			c0.82,1.41,3.58,3.64,3.58,3.64s0.05,0.16,0.09,0.42C167.89,496.87,167.92,498.53,166,498.8z"/>
	</g>
	<g>
		<path class="st38" d="M187.18,515.75c-0.52,4.1-1.99,5.19-4.6,8.24c-1.61,3.03-10.04,6.22-10.04,6.22s-2.21,0.01-5.14,0.11
			c-0.58,0.02-1.19,0.04-1.82,0.07c-5.17,0.72-7.54-1.23-7.54-1.23c12.54-2.76,21.08-12.11,25.2-17.74
			c0.51-0.68,0.94-1.31,1.31-1.86c1.04-1.55,1.57-2.53,1.57-2.53c0.07,0.07,0.15,0.16,0.22,0.27c0.2,0.38,0.35,0.71,0.42,0.97
			C187.28,509.9,187.56,512.75,187.18,515.75z"/>
		<path class="st38" d="M185.52,511.18c-0.62,0.91-1.23,1.64-1.23,1.64s-0.43-0.61-1.04-1.41c-1.23-1.59-3.22-3.93-4.15-3.75
			c-1.39,0.25-10.34-4.43-10.69-6.01c-0.12-0.55,0.08-1.11,0.39-1.63c0.59-0.97,1.58-1.74,1.58-1.74s7.74,6.49,12.51,5.95
			c1.21-0.04,2.72,1.73,3.45,3.08c0.2,0.38,0.35,0.71,0.42,0.97C186.92,508.91,186.21,510.15,185.52,511.18z"/>
	</g>
	<path class="st38" d="M206.57,530.98c-3.27,5.49-14.2,8.93-16.71,9.53c-2.22,0.52-5.72,0.83-7.62,0.62
		c-0.25-0.02-0.47-0.07-0.65-0.11c-1.64-0.38-2.9-2.76-2.9-2.76s25.53-7.01,25.89-15.63c0.37-8.61-15.69-9.38-16.28-9.37
		c-0.11,0,0.16-0.14,0.7-0.36c2.23-0.9,9.14-3.11,12.72-1.82c4.44,1.59,5.45,3.48,5.68,4.56
		C207.6,516.71,209.84,525.5,206.57,530.98z"/>
	<path class="st38" d="M213.72,503.58c-0.38,2.82-1.82,9.13-5.04,10.93c-0.04,0.02-0.09,0.05-0.13,0.07
		c0.71-1.82,3.5-9.35,2.16-12.22c-1.54-3.27-2.58-10.09-5.57-13.5c-2.99-3.41-1.81-12.95-1.81-12.95s-2.22-12.63-5.12-17.31
		c1.77,1.7,3.22,3.79,4.39,5.97c2.81,5.28,3.93,11.1,3.73,13.38c-0.42,4.73,1.26,9.05,2.37,10.44
		C209.82,489.79,214.13,500.37,213.72,503.58z"/>
	<path class="st7" d="M197.95,458.05"/>
	<g>
		<path class="st38" d="M161.32,485.27c-8.85-0.93-16.04,6.78-16.04,6.78c0.04-0.23,0.09-0.44,0.16-0.66
			c1.95-8.09,10.12-10.85,10.12-10.85c-0.69-5.19,2.71-10.55,4.06-12.45c0.89-0.09,1.9-0.11,2.85-0.07l0.49,0.02
			c1.14,0.06,2.15,0.18,2.73,0.33c0,0,0.05-0.08,0.14-0.24c0.02,0.03,0.01,0.05,0.01,0.05
			C159.21,476.98,161.32,485.27,161.32,485.27z"/>
		<path class="st39" d="M161.32,485.27c-8.85-0.93-16.04,6.78-16.04,6.78c0.04-0.23,0.09-0.44,0.16-0.66
			c1.14-2.62,4.24-6.3,12.58-8.95c0,0,0.96-8.64,4.45-14.43l0.49,0.02c1.14,0.06,2.15,0.18,2.73,0.33c0,0,0.05-0.08,0.14-0.24
			c0.02,0.03,0.01,0.05,0.01,0.05C159.21,476.98,161.32,485.27,161.32,485.27z"/>
	</g>
	<path class="st40" d="M169.63,497.98c0,0-8.73,12.75-16.81,13.24c-4.46,0.27-7.66-0.47-9.95-1.88c4.86-0.08,11.31-0.98,15.96-4.57
		c4.74-3.66,6.51-5.15,7.17-5.95c0.01-0.01,0-0.01,0-0.01c0.52-0.62,0.37-0.83,0.43-1.36c-0.29-0.3-0.69-0.51-1.12-0.78
		c-0.82-0.5-1.8-1.23-2.58-3.3c-0.96-2.53-2.26-5.17-2.7-7.6c0.89,0.21,1.41,0.52,1.41,0.52s1.85,4.33,2.67,5.73
		c0.82,1.41,3.58,3.64,3.58,3.64s0.05,0.16,0.09,0.42L169.63,497.98z"/>
	<path class="st40" d="M187.18,515.75c-0.52,4.1-1.99,5.19-4.6,8.24c-1.61,3.03-10.04,6.22-10.04,6.22s-2.21,0.01-5.14,0.11
		c4.47-2.33,9.26-5.7,12.97-10.47c4.33-5.59,5.81-6.89,5.14-8.67c-0.13-0.37-0.36-0.76-0.68-1.21c-0.1-0.14-0.2-0.28-0.29-0.41
		c-1.62-2.31-2.19-2.97-4.17-3.52c-1.69-0.47-8.7-3.63-11.58-6.01c0.59-0.97,1.58-1.74,1.58-1.74s7.74,6.49,12.51,5.95
		c1.21-0.04,2.72,1.73,3.45,3.08c0.2,0.38,0.35,0.71,0.42,0.97C187.28,509.9,187.56,512.75,187.18,515.75z"/>
	<path class="st40" d="M206.57,530.98c-3.27,5.49-14.2,8.93-16.71,9.53c-2.22,0.52-5.72,0.83-7.62,0.62
		c7.09-2.49,17.69-6.66,21.13-10.38c5.33-5.77,5.43-12.46,0.94-15.33c-3.33-2.12-10.86-3.15-15.33-2.53
		c2.23-0.9,9.14-3.11,12.72-1.82c4.44,1.59,5.45,3.48,5.68,4.56C207.6,516.71,209.84,525.5,206.57,530.98z"/>
	<path class="st40" d="M213.72,503.58c-0.38,2.82-1.82,9.13-5.04,10.93c1.05-1.73,2.82-5.11,3.58-9.35
		c1.11-6.23-3.74-14.76-4.42-15.29c-0.68-0.52-3.24-7.67-2.87-10.91c0.22-1.97-1.07-8.91-2.37-14.39c2.81,5.28,3.93,11.1,3.73,13.38
		c-0.42,4.73,1.26,9.05,2.37,10.44C209.82,489.79,214.13,500.37,213.72,503.58z"/>
</g>
<path class="st18" d="M682.16,648.11c-0.07,0.94-0.59,6.83-5.77,10.87c-5.53,4.32-11.84,3-12.68,2.81
	c-3.18-0.41-6.85-1.72-10.84-3.72c6.87-4.37,13.76-10.98,12.22-19.51c-1.73-9.58-22.81-50.58-45.29-82.23
	c7.84,6.67,16.13,14.99,24.57,25.37C655.5,595.41,670.59,617.2,682.16,648.11z"/>
<path class="st41" d="M770.57,569.53c-3.3-4.51-7.34-8.81-11.15-11.42c0.61,0.29,1.15,0.44,1.56,0.52c1.15,0.2,3.94,0.88,7.11,0.65
	C767.67,563.01,768.77,566.75,770.57,569.53z"/>
<path class="st7" d="M815.51,550.32c-0.92-2.37-0.18-4.47-4.66-5.39c-1.28-0.26-2.3-0.45-3.09-0.58c-1.7-0.29-2.38-0.33-2.54-0.34
	c-0.02,0-0.03,0-0.03,0s0.03-2.07-0.2-4.25c-0.02-0.11-0.02-0.22-0.04-0.33c-0.02-0.17-0.04-0.34-0.07-0.52
	c-0.02-0.1-0.03-0.2-0.04-0.29c-0.1-0.62-0.22-1.22-0.38-1.76c-0.03-0.13-0.07-0.25-0.11-0.37c-0.05-0.15-0.11-0.29-0.16-0.43
	c-1.1-2.56-2.56-6.4-5.02-7.04c-2.47-0.64-7.95-1.37-9.96-1.1c-0.78,0.11-1.96-0.08-3.09-0.56c-0.9-0.38-1.77-0.94-2.35-1.67
	c-0.57-0.71-0.88-1.59-0.68-2.61c0.07-0.39,0.13-0.78,0.16-1.15c0.02-0.13,0.02-0.25,0.02-0.38c0.03-0.43,0.03-0.83,0.02-1.23v-0.01
	c0.01-0.02,0.01-0.03,0-0.05c-0.01-0.21-0.02-0.42-0.05-0.62c0-0.06-0.01-0.11-0.02-0.17c-0.02-0.18-0.04-0.35-0.07-0.52
	c-0.01-0.08-0.02-0.16-0.05-0.24c-0.03-0.18-0.07-0.34-0.12-0.52c0.01-0.01,0.01-0.01,0-0.02c-0.06-0.21-0.12-0.41-0.19-0.61
	c-0.07-0.2-0.15-0.39-0.23-0.57c-0.08-0.18-0.16-0.35-0.25-0.52c-0.09-0.16-0.19-0.32-0.29-0.47c-0.09-0.15-0.2-0.29-0.3-0.43
	c-0.1-0.12-0.23-0.27-0.39-0.43l-0.36-0.36c-0.25-0.24-0.53-0.49-0.85-0.76c-2.03-1.69-5.53-3.88-9.49-3.99h-0.01
	c-0.52-0.02-1.06,0-1.59,0.07c-6.13,0.74-22.47,14.71-23.48,15.81c-1.01,1.1-6.31,12.42-6.31,14.25c0,1.83-1.19,2.83-1.64,2.65
	c-0.46-0.18-6.12,3.48-5.48,9.5l-0.01,0.01c-0.18,0.25-3.26,4.56-2.82,7.75c0.46,3.29,3.56,11.88,7.76,13.98
	c4.2,2.1,9.41,3.93,12.79,4.29c0,0,7.12,10.87,12.24,12.24c5.11,1.37,12.33-0.55,14.8-4.29c0.02,0.02,0.03,0.02,0.05,0.03
	c0.83,0.48,11.61,6.5,21.88-1.31c10.69-8.14,14.71-10.05,15.99-15.99C816.05,563.11,816.42,552.69,815.51,550.32z M759.43,558.11
	c0.61,0.29,1.15,0.44,1.56,0.52c0.69,0.12,1.97,0.42,3.57,0.58c1.06,0.11,2.27,0.16,3.54,0.07c-0.08,0.71-0.11,1.43-0.08,2.14
	c0.11,2.99,1.1,5.86,2.56,8.11C767.28,565.03,763.24,560.72,759.43,558.11z M774.02,574.82c-0.79-1.38-1.7-2.81-2.69-4.22
	c0.34,0.43,0.68,0.82,1.05,1.17c0.69,0.69,1.42,1.23,2.18,1.63c-0.01,0.01-0.02,0.02-0.02,0.02c-0.11,0.2-0.2,0.42-0.29,0.67
	C774.17,574.31,774.09,574.55,774.02,574.82z"/>
<path class="st41" d="M774.56,573.39c-0.01,0.01-0.02,0.02-0.02,0.02c-0.2,0.37-0.38,0.84-0.52,1.4c-0.79-1.38-1.7-2.81-2.69-4.22
	C772.3,571.83,773.41,572.8,774.56,573.39z"/>
<path class="st42" d="M790.77,524.96"/>
<path class="st12" d="M765.98,513.08c-0.07,0.04-0.48,0.28-1.14,0.72c-3.46,2.35-13.54,10.38-13.56,24.23
	c-0.01,8.71,1.83,13.73,3.94,16.6c0,0-0.41-0.39-1.05-1.11c-3.11-3.43-11.73-14.15-7.5-23.7
	C751.71,518.45,765.55,513.24,765.98,513.08z"/>
<path class="st12" d="M783.76,525.7c-0.14,1.7-0.29,3.44-0.48,5.19c-0.95,9.18-2.57,18.57-5.23,22.67
	c-2.68,4.15-6.53,5.47-9.95,5.72c-3.17,0.23-5.95-0.45-7.11-0.65c-0.41-0.07-0.95-0.23-1.56-0.52c-0.64-0.29-1.37-0.74-2.1-1.41
	c-0.02-0.01-0.02-0.02-0.03-0.02c-0.52-0.46-1.03-1.01-1.53-1.7c0,0,0,0,1.04,0.1c1.05,0.11,8.68,0.74,14.94-3.86
	s4.7-14.41,5.32-25.37c0.39-6.88-3.49-12.54-6.45-15.78h-0.01v-0.01c4.59,0.12,8.56,3.04,10.35,4.76c0.07,0.06,0.13,0.11,0.19,0.19
	c0.07,0.05,0.12,0.11,0.17,0.17c0.16,0.16,0.29,0.31,0.39,0.43c0.11,0.13,0.21,0.28,0.3,0.43c0.1,0.15,0.2,0.3,0.29,0.47
	c0.09,0.16,0.17,0.34,0.25,0.52c0.08,0.18,0.16,0.38,0.23,0.57c0.07,0.2,0.13,0.39,0.19,0.61c0.01,0.01,0.01,0.01,0,0.02
	c0.05,0.17,0.09,0.34,0.12,0.52c0.02,0.07,0.04,0.16,0.05,0.24c0.03,0.17,0.06,0.34,0.07,0.52c0.02,0.06,0.02,0.11,0.02,0.17
	c0.02,0.2,0.04,0.41,0.05,0.62c0.01,0.02,0.01,0.03,0,0.05v0.01c0.02,0.4,0.02,0.81-0.02,1.23c0,0.12-0.01,0.25-0.02,0.38
	c-0.03,0.38-0.09,0.76-0.16,1.15C782.88,524.12,783.18,524.99,783.76,525.7z"/>
<path class="st38" d="M805.02,548.42c-0.7,7.15-3.71,19.72-16,24.33c-8.3,2.49-8.3,2-12.76,1.23c-0.56-0.1-1.13-0.29-1.68-0.58
	c-0.01,0-0.02,0-0.02-0.01c-1.15-0.6-2.27-1.56-3.23-2.8c-0.24-0.34-0.48-0.68-0.74-1.02c-0.01-0.02-0.02-0.02-0.02-0.04
	c-1.8-2.78-2.9-6.52-2.48-10.25c0,0,4.79,9.96,11.81,8.99s14.53-5.99,14.95-12.53s2.91-17.18-2.3-21.05
	c-3.24-2.4-6.94-3.39-9.28-3.79c-1.42-0.25-2.34-0.28-2.34-0.28l2.35-10.29c0.02,0.4,0.02,0.81-0.02,1.23
	c0,0.12-0.01,0.25-0.02,0.38c-0.03,0.38-0.09,0.76-0.16,1.15c-0.2,1.02,0.11,1.9,0.68,2.61c1.31,1.64,4.04,2.43,5.44,2.23
	c2.01-0.27,7.49,0.46,9.96,1.1c2.46,0.65,3.93,4.48,5.02,7.04c0.06,0.14,0.11,0.29,0.16,0.43c0.04,0.11,0.08,0.24,0.11,0.37
	c0.19,0.62,0.32,1.32,0.43,2.04c0.02,0.17,0.04,0.34,0.07,0.52c0.02,0.11,0.02,0.22,0.04,0.33c0.23,2.18,0.2,4.25,0.2,4.25
	s0.01,0,0.03,0C805.23,544.87,805.22,546.44,805.02,548.42z"/>
<path class="st38" d="M814.78,569.05c-1.28,5.94-5.3,7.85-15.99,15.99c-10.27,7.81-21.04,1.79-21.88,1.31
	c-0.02-0.01-0.03-0.02-0.05-0.03c-0.29-0.29-0.56-0.6-0.81-0.91c-1.92-2.44-2.49-5.42-2.41-7.91c0.03-1,0.18-1.91,0.38-2.68
	c0.15-0.56,0.33-1.03,0.52-1.4c0-0.01,0.01-0.02,0.02-0.02c0-0.02,0.01-0.02,0.02-0.04v0.05c0.01,0.97,0.15,3.78,2.21,6.16
	c1.79,2.07,4.06,2.83,5.19,3.03c3.7,0.68,4.67,0.58,8.8,0.29c4.13-0.28,15.5-8.49,18.84-12.38c3.35-3.9,1.11-12.25,0-17.68
	c-0.56-2.72-2.64-3.9-4.59-4.41c-1.95-0.5-3.76-0.33-3.76-0.33l0.97-7.1l2.76-1.23c0.23,2.18,0.2,4.25,0.2,4.25s0.01,0,0.03,0
	c0.23,0.01,1.59,0.09,5.63,0.92c4.48,0.92,3.75,3.02,4.66,5.39C816.42,552.69,816.05,563.11,814.78,569.05z"/>
<path class="st7" d="M729.92,556.36c-0.01-0.01-0.01-0.02-0.01-0.02c0.02-0.04,0.02-0.07,0.03-0.09
	C729.94,556.26,729.93,556.3,729.92,556.36z"/>
<path class="st7" d="M729.92,556.36c0.02,0.06,0.1,0.23,0.22,0.52C729.52,558.09,729.82,556.77,729.92,556.36z"/>
<path class="st7" d="M776.86,586.31c-0.2,0.25-0.38,0.48-0.6,0.7c-0.03,0.04-0.07,0.08-0.11,0.12c-3.31,3.5-8.15,3.71-8.15,3.71
	c-23.81-4.66-36.06-29.97-37.87-33.97c0.33-0.63,0.91-1.94,1.91-4.42c0.02-0.04,0.04-0.09,0.06-0.13c0.35-0.87,0.8-1.57,1.33-2.13
	c4.96-5.22,17.31,1.97,25.99,7.92C769.03,564.7,780.14,582.02,776.86,586.31z"/>
<path class="st38" d="M731.45,553.32c0,0-5.36,5.47,1.32,16.13c6.68,10.66,24.23,20.79,29.3,21.16c5.07,0.37,8.32,1.15,14.11-3.43
	c0,0-9.75,2.55-18.36-3.17s-16.01-12.51-20.6-16.35C732.63,563.82,730.63,557.12,731.45,553.32z"/>
<path class="st38" d="M776.86,586.31c-0.1,0.12-0.2,0.25-0.29,0.36c-0.1,0.11-0.2,0.23-0.3,0.34c-0.03,0.04-0.07,0.08-0.11,0.12
	c-0.57-1.05-11.88-21.75-25.93-26.63c-11.15-3.88-12.29-6.81-18.19-8.05c0.02-0.04,0.04-0.08,0.05-0.12l0.01-0.01
	c0.35-0.87,0.8-1.57,1.33-2.13c0.09-0.1,0.18-0.19,0.28-0.27c0.07-0.06,0.13-0.11,0.2-0.17c0.55-0.46,1.19-0.79,1.87-1.01
	c0.12-0.04,0.25-0.07,0.38-0.11c0.02-0.01,0.05-0.02,0.07-0.02c0.12-0.03,0.25-0.06,0.38-0.08c0.19-0.04,0.37-0.07,0.56-0.08
	c0.16-0.02,0.33-0.03,0.49-0.04c1.08-0.07,2.26,0.07,3.51,0.34c0.42,0.09,0.84,0.2,1.28,0.33c0.65,0.19,1.32,0.41,1.99,0.66
	c0.45,0.16,0.91,0.34,1.37,0.54c0.23,0.09,0.46,0.19,0.69,0.29c0.84,0.38,1.7,0.79,2.56,1.22c1.01,0.52,2.03,1.08,3.04,1.66
	c0.47,0.27,0.93,0.54,1.39,0.82c0.69,0.42,1.37,0.83,2.05,1.27c0.45,0.29,0.89,0.57,1.33,0.86c0.14,0.09,0.28,0.18,0.42,0.27
	c0.01,0.01,0.02,0.02,0.03,0.02c0.2,0.13,0.39,0.26,0.59,0.39c0.52,0.34,1.02,0.69,1.51,1.02c3.81,2.61,7.85,6.91,11.15,11.42
	c0.01,0.02,0.02,0.02,0.02,0.04c0.25,0.34,0.5,0.68,0.74,1.02C775.91,577.13,778.73,583.86,776.86,586.31z"/>
<path class="st14" d="M776.86,586.31c-0.1,0.12-0.2,0.25-0.29,0.36c-0.1,0.11-0.2,0.23-0.3,0.34c-0.06-0.53-0.12-1.06-0.21-1.61
	c-0.4-2.5-1.15-5.17-2.41-7.91c-1.88-4.1-4.92-8.37-9.62-12.5c-12.15-10.67-23.6-13.9-30.59-14.8c0.09-0.1,0.18-0.19,0.28-0.27
	c0.07-0.06,0.13-0.11,0.2-0.17c0.55-0.46,1.19-0.79,1.87-1.01c0.12-0.04,0.25-0.07,0.38-0.11c0.02-0.01,0.05-0.02,0.07-0.02
	c0.12-0.03,0.25-0.06,0.38-0.08c0.19-0.04,0.37-0.07,0.56-0.08c0.16-0.02,0.33-0.03,0.49-0.04c1.08-0.07,2.26,0.07,3.51,0.34
	c0.42,0.09,0.84,0.2,1.28,0.33c0.65,0.19,1.32,0.41,1.99,0.66c0.45,0.16,0.91,0.34,1.37,0.54c0.23,0.09,0.46,0.19,0.69,0.29
	c0.84,0.38,1.7,0.79,2.56,1.22c1.01,0.52,2.03,1.08,3.04,1.66c0.47,0.26,0.92,0.54,1.39,0.82c0.69,0.42,1.37,0.83,2.05,1.27
	c0.44,0.29,0.89,0.57,1.33,0.86c0.14,0.09,0.28,0.18,0.42,0.27c0.01,0.01,0.02,0.02,0.03,0.02c0.2,0.13,0.39,0.26,0.59,0.39
	c0.52,0.34,1.02,0.69,1.51,1.02c3.81,2.61,7.85,6.91,11.15,11.42c0.01,0.02,0.02,0.02,0.02,0.04c0.25,0.34,0.5,0.68,0.74,1.02
	c0.99,1.41,1.9,2.84,2.69,4.22C776.91,579.85,778.33,584.39,776.86,586.31z"/>
<path class="st14" d="M751.29,538.03c-0.01,8.71,1.83,13.73,3.94,16.6c0,0-0.41-0.39-1.05-1.11c-6.58-12.78-5.61-19.66-5.61-19.66
	s5.78-15.9,16.28-20.05C761.39,516.15,751.31,524.18,751.29,538.03z"/>
<path class="st14" d="M782.19,551.02c-5.1,8.73-10.72,10.21-14.17,10.41c-0.02-0.71,0-1.43,0.08-2.14c3.42-0.25,7.27-1.56,9.95-5.72
	c2.66-4.1,4.28-13.49,5.23-22.67c0.19-1.75,0.34-3.49,0.48-5.19c0.58,0.73,1.45,1.29,2.35,1.67l-0.37,1.19
	C785.74,528.57,788.03,540.99,782.19,551.02z"/>
<path class="st14" d="M807.73,544.32c-0.25,7.3-1.48,16.01-5.52,20.04c-7.62,7.61-5.64,7.93-17.13,11.68
	c-5.15,1.69-8.61,0.19-10.85-1.98c0.09-0.25,0.19-0.47,0.29-0.67c0-0.01,0.01-0.02,0.02-0.02c0,0.01,0.01,0.01,0.02,0.01
	c0.56,0.29,1.12,0.48,1.68,0.58c4.46,0.77,4.46,1.25,12.76-1.23c12.28-4.61,15.29-17.18,16-24.33c0.2-1.98,0.21-3.54,0.2-4.4
	C805.35,543.99,806.02,544.03,807.73,544.32z"/>
</svg>
