<?xml version="1.0" encoding="utf-8"?>
<!-- Generator: Adobe Illustrator 27.3.1, SVG Export Plug-In . SVG Version: 6.00 Build 0)  -->
<svg version="1.1" xmlns="http://www.w3.org/2000/svg" xmlns:xlink="http://www.w3.org/1999/xlink" x="0px" y="0px"
	 viewBox="0 0 512 512" style="enable-background:new 0 0 512 512;" xml:space="preserve">
<style type="text/css">
	.st0{fill:#F6D723;stroke:#F6D723;stroke-width:3;stroke-miterlimit:10;}
</style>
<g id="Camada_2">
	<g>
		<g>
			<path class="st0" d="M256.59,283.23c0,0-182.9,0-195.78,0s-46.12,4.65-46.12,22.49"/>
			<path class="st0" d="M498.49,305.72c0-17.84-33.24-22.49-46.12-22.49s-195.78,0-195.78,0l0.2,22.49H498.49c0,0.03,0,0.05,0,0.08
				c-0.1,17.78-33.26,22.41-46.12,22.41c-12.35,0-181.04,0-194.88,0c-0.59,0-0.9,0-0.9,0l0.2-21.61l0.01-0.88H14.69
				c0,17.84,33.24,22.49,46.12,22.49s195.78,0,195.78,0"/>
		</g>
		<polygon class="st0" points="257.23,306.09 257.62,327.74 464.79,327.24 493.68,306.6 		"/>
		<polygon class="st0" points="20.6,307.19 262.19,308.65 262.19,283.72 53.67,285.48 20.6,306.6 		"/>
	</g>
	<g>
		<g>
			<path class="st0" d="M256.23,213.86c0,0-143.81,0-153.93,0s-36.27,4.68-36.27,22.68"/>
			<path class="st0" d="M446.43,236.53c0-17.99-26.14-22.68-36.27-22.68s-153.93,0-153.93,0l0.16,22.68H446.43c0,0.03,0,0.05,0,0.08
				c-0.08,17.93-26.15,22.6-36.27,22.6c-9.71,0-142.35,0-153.23,0c-0.47,0-0.71,0-0.71,0l0.15-21.79l0.01-0.89H66.03
				c0,17.99,26.14,22.68,36.27,22.68s153.93,0,153.93,0"/>
		</g>
		<polygon class="st0" points="256.73,236.9 257.04,258.74 419.93,258.23 442.64,237.42 		"/>
		<polygon class="st0" points="70.68,238.01 260.63,239.49 260.63,214.35 96.68,216.12 70.68,237.42 		"/>
	</g>
	<g>
		<g>
			<path class="st0" d="M255.66,142.76c0,0-101.75,0-108.91,0c-7.17,0-25.66,4.66-25.66,22.55"/>
			<path class="st0" d="M390.23,165.31c0-17.89-18.49-22.55-25.66-22.55c-7.17,0-108.91,0-108.91,0l0.11,22.55H390.23
				c0,0.03,0,0.05,0,0.08c-0.05,17.83-18.5,22.47-25.66,22.47c-6.87,0-100.72,0-108.41,0c-0.33,0-0.5,0-0.5,0l0.11-21.67l0-0.88
				H121.09c0,17.89,18.49,22.55,25.66,22.55c7.17,0,108.91,0,108.91,0"/>
		</g>
		<polygon class="st0" points="256.02,165.67 256.23,187.39 371.48,186.88 387.56,166.19 		"/>
		<polygon class="st0" points="124.38,166.78 258.78,168.25 258.78,143.25 142.78,145.01 124.38,166.19 		"/>
	</g>
	<path class="st0" d="M315.51,187.39c0,0,14.81,15.02-1.02,26.47c-15.83,11.44,25.02,0,25.02,0s-22.64-12.7-6.3-26
		C349.55,174.55,315.51,187.39,315.51,187.39z"/>
	<path class="st0" d="M129.81,259.21c0,0,8.17,13.81,0,24.51s36.21,0.81,36.21,0.81s-25.31-11.54-4.89-27.56
		C181.55,240.96,129.81,259.21,129.81,259.21z"/>
</g>
<g id="Camada_3">
</g>
</svg>
